<?xml version="1.0" encoding="UTF-8"?>
<!DOCTYPE svg PUBLIC "-//W3C//DTD SVG 1.1//EN" "http://www.w3.org/Graphics/SVG/1.1/DTD/svg11.dtd">
<!-- Creator: CorelDRAW -->
<svg xmlns="http://www.w3.org/2000/svg" xml:space="preserve" width="20.6023mm" height="4.613mm" version="1.1" style="shape-rendering:geometricPrecision; text-rendering:geometricPrecision; image-rendering:optimizeQuality; fill-rule:evenodd; clip-rule:evenodd"
viewBox="0 0 46.79 10.48"
 xmlns:xlink="http://www.w3.org/1999/xlink"
 xmlns:xodm="http://www.corel.com/coreldraw/odm/2003">
 <defs>
  <style type="text/css">
   <![CDATA[
    .str0 {stroke:#E6E6E6;stroke-width:0.17;stroke-miterlimit:22.9256}
    .fil3 {fill:black}
    .fil1 {fill:#31BDAE}
    .fil2 {fill:#96989A}
    .fil15 {fill:#9B3234}
    .fil16 {fill:#FEFEFE}
    .fil0 {fill:white}
    .fil4 {fill:black;fill-rule:nonzero}
    .fil9 {fill:#006CB5;fill-rule:nonzero}
    .fil12 {fill:#00A7E1;fill-rule:nonzero}
    .fil7 {fill:#192168;fill-rule:nonzero}
    .fil14 {fill:#373435;fill-rule:nonzero}
    .fil5 {fill:#D81E05;fill-rule:nonzero}
    .fil13 {fill:#EF4B37;fill-rule:nonzero}
    .fil10 {fill:#FAA841;fill-rule:nonzero}
    .fil6 {fill:#FCA311;fill-rule:nonzero}
    .fil8 {fill:#FEFEFE;fill-rule:nonzero}
    .fil11 {fill:#FFCC29;fill-rule:nonzero}
   ]]>
  </style>
 </defs>
 <g id="Camada_x0020_1">
  <metadata id="CorelCorpID_0Corel-Layer"/>
  <g id="_1217154607872">
   <path class="fil0 str0" d="M15.04 5.65l7.37 0c0.35,-0 0.63,0.28 0.63,0.63l-0 3.49c0,0.34 -0.28,0.63 -0.63,0.63l-7.37 0c-0.34,-0 -0.63,-0.28 -0.63,-0.63l-0 -3.49c0,-0.35 0.28,-0.63 0.63,-0.63z"/>
   <path class="fil0 str0" d="M24.38 5.65l7.37 0c0.35,-0 0.63,0.28 0.63,0.63l0 3.49c0,0.34 -0.28,0.63 -0.63,0.63l-7.37 0c-0.35,-0 -0.63,-0.28 -0.63,-0.63l0 -3.49c0,-0.35 0.28,-0.63 0.63,-0.63z"/>
   <path class="fil0 str0" d="M0.71 0.09l7.37 0c0.35,0 0.63,0.28 0.63,0.63l-0 3.49c0,0.35 -0.28,0.63 -0.63,0.63l-7.37 0c-0.34,0 -0.63,-0.28 -0.63,-0.63l-0 -3.49c0,-0.35 0.28,-0.63 0.63,-0.63z"/>
   <path class="fil0 str0" d="M10.21 0.09l7.37 0c0.35,0 0.63,0.28 0.63,0.63l0 3.49c0,0.35 -0.28,0.63 -0.63,0.63l-7.37 0c-0.34,0 -0.63,-0.28 -0.63,-0.63l-0 -3.49c0,-0.35 0.28,-0.63 0.63,-0.63z"/>
   <path class="fil0 str0" d="M19.71 0.09l7.37 0c0.35,0 0.63,0.28 0.63,0.63l0 3.49c0,0.35 -0.28,0.63 -0.63,0.63l-7.37 0c-0.34,0 -0.63,-0.28 -0.63,-0.63l-0 -3.49c0,-0.35 0.28,-0.63 0.63,-0.63z"/>
   <path class="fil0 str0" d="M29.21 0.09l7.37 0c0.35,0 0.63,0.28 0.63,0.63l0 3.49c-0,0.35 -0.28,0.63 -0.63,0.63l-7.37 0c-0.35,0 -0.63,-0.28 -0.63,-0.63l-0 -3.49c0,-0.35 0.28,-0.63 0.63,-0.63z"/>
   <path class="fil0 str0" d="M38.71 0.09l7.37 0c0.35,0 0.63,0.28 0.63,0.63l0 3.49c0,0.35 -0.28,0.63 -0.63,0.63l-7.37 0c-0.35,0 -0.63,-0.28 -0.63,-0.63l0 -3.49c0,-0.35 0.28,-0.63 0.63,-0.63z"/>
  </g>
  <path class="fil1" d="M17.17 8.69l-0.39 0.39c-0.15,0.15 -0.39,0.15 -0.55,0l-0.39 -0.39c0.07,0 0.13,-0.01 0.18,-0.03 0.05,-0.01 0.09,-0.04 0.12,-0.08l0.31 -0.32c0.01,-0.01 0.03,-0.02 0.05,-0.02 0.01,0 0.03,0.01 0.05,0.02l0.31 0.32c0.03,0.04 0.07,0.06 0.12,0.08 0.04,0.01 0.1,0.02 0.16,0.03l0 0zm-1.32 -1.18l0.39 -0.39c0.15,-0.15 0.39,-0.15 0.55,0l0.39 0.39c-0.07,0 -0.12,0.01 -0.16,0.03 -0.05,0.01 -0.09,0.04 -0.12,0.08l-0.31 0.32c-0.01,0.01 -0.03,0.02 -0.05,0.02 -0.01,0 -0.03,-0.01 -0.05,-0.02l-0.31 -0.32c-0.03,-0.04 -0.07,-0.06 -0.12,-0.08 -0.05,-0.01 -0.12,-0.03 -0.19,-0.03l-0 -0.01zm-0.31 0.31l0.18 -0.18c0.14,-0.02 0.23,-0.01 0.3,0.01 0.07,0.02 0.1,0.06 0.14,0.09l0 0c0.23,0.23 0.3,0.28 0.3,0.28l0 0c0.01,0.01 0.02,0.01 0.04,0.01 0.01,0.01 0.03,0.01 0.04,0.01 0.01,0 0.03,0 0.04,-0.01 0.01,0 0.02,-0.01 0.04,-0.01l0 0c0,0 0.07,-0.06 0.3,-0.28l0 0c0.04,-0.04 0.07,-0.07 0.14,-0.09 0.06,-0.02 0.14,-0.03 0.26,-0.01l0.19 0.19c0.15,0.15 0.15,0.39 0,0.55l-0.19 0.19c-0.12,0.01 -0.2,0.01 -0.25,-0.01 -0.07,-0.02 -0.1,-0.06 -0.14,-0.09l0 0c-0.23,-0.23 -0.3,-0.28 -0.3,-0.28l0 0c-0.01,-0.01 -0.02,-0.01 -0.04,-0.01 -0.01,-0.01 -0.03,-0.01 -0.04,-0.01 -0.01,0 -0.03,0 -0.04,0.01 -0.01,0 -0.02,0.01 -0.04,0.01l0 0c0,0 -0.07,0.06 -0.3,0.28l0 0c-0.04,0.04 -0.07,0.07 -0.14,0.09 -0.07,0.02 -0.15,0.03 -0.29,0.01l-0.18 -0.18c-0.15,-0.15 -0.15,-0.39 0,-0.55l-0.01 0z"/>
  <path class="fil0" d="M20.09 8.83c-0.06,0.03 -0.13,0.04 -0.21,0.04 -0.16,-0.01 -0.27,-0.09 -0.33,-0.2 -0.03,0.02 -0.07,0.05 -0.09,0.07 -0.25,0.15 -0.57,0.14 -0.87,0.13 -0.01,0.17 -0.02,0.3 -0.04,0.36l-0.07 0.17 -0.17 0.05c-0.31,0.09 -0.57,-0.12 -0.57,-0.44l0 -1.19c0,-0.32 0.06,-0.57 0.32,-0.79 0.27,-0.23 0.5,-0.2 0.82,-0.2 0.17,0 0.33,0.01 0.48,0.07 0.1,-0.05 0.23,-0.07 0.35,-0.07 0.13,0 0.24,0.02 0.33,0.07 0.07,-0.04 0.17,-0.07 0.26,-0.07 0.08,0 0.16,0 0.24,0.01 0.2,0.03 0.32,0.12 0.46,0.25 0.04,0.04 0.09,0.1 0.15,0.15 0.14,-0.14 0.28,-0.29 0.46,-0.36 0.11,-0.04 0.2,-0.05 0.31,-0.05 0.31,-0.01 0.57,0.15 0.52,0.51l-0.02 0.17 -0.15 0.09c-0.16,0.1 -0.23,0.06 -0.35,0.07 -0.01,0.01 -0.05,0.07 -0.08,0.09 -0.02,0.03 -0.05,0.05 -0.08,0.08 0.05,0.06 0.11,0.11 0.17,0.16 0.15,0.02 0.27,-0.03 0.42,0.15 0.27,0.33 0,0.69 -0.36,0.7 -0.09,0 -0.21,-0.01 -0.3,-0.03 -0.18,-0.05 -0.27,-0.13 -0.4,-0.26 -0.04,-0.04 -0.08,-0.09 -0.12,-0.13 -0.14,0.15 -0.28,0.3 -0.46,0.36 -0.15,0.06 -0.41,0.07 -0.58,0.02l-0.01 0.02zm0.24 -0.82c0.01,0 0.03,0.01 0.03,0.01 0.07,-0.04 0.12,-0.1 0.17,-0.17 -0.07,-0.07 -0.13,-0.15 -0.17,-0.19 -0.01,0 -0.02,0 -0.03,0.01 0,0.04 0,0.08 0,0.12l0 0.22 0 -0zm-1.75 -0.01c0.05,0 0.11,0.01 0.16,0.01 0.05,0 0.22,0.01 0.27,-0.01 0.01,-0.04 0,-0.24 0,-0.29 0,-0.01 0,-0.02 0,-0.02 -0.09,-0.01 -0.36,-0.01 -0.42,0 -0.01,0.01 -0.01,0.04 -0.01,0.05 0,0.07 0,0.16 0.01,0.28l-0.01 -0.01z"/>
  <path class="fil2" d="M18.18 9.08c0.03,-0.07 0.01,-1.17 0.01,-1.35 0,-0.21 0.11,-0.36 0.27,-0.41 0.1,-0.04 0.53,-0.04 0.64,-0.01 0.16,0.04 0.29,0.19 0.29,0.39 0.01,0.23 0.03,0.42 -0.11,0.57 -0.15,0.16 -0.28,0.13 -0.55,0.13 -0.07,0 -0.3,-0.01 -0.33,0.01 -0.01,0.01 -0.01,0.04 -0.01,0.06 0.01,0.02 0.04,0.01 0.07,0.01 0.25,0 0.6,0.04 0.78,-0.07 0.13,-0.08 0.23,-0.23 0.23,-0.44 0,-0.27 0.03,-0.39 -0.11,-0.57 -0.12,-0.17 -0.31,-0.17 -0.5,-0.17 -0.25,0 -0.41,-0.03 -0.57,0.11 -0.14,0.12 -0.18,0.25 -0.18,0.49l0 1.19c0,0.07 0.01,0.09 0.07,0.07l-0 0z"/>
  <path class="fil2" d="M21.35 7.68c0.07,-0.06 0.12,-0.12 0.18,-0.18 0.05,-0.05 0.12,-0.13 0.19,-0.17 0.11,-0.06 0.25,-0.01 0.31,-0.05 0.01,-0.09 -0.07,-0.07 -0.14,-0.07 -0.07,0 -0.11,0 -0.17,0.02 -0.12,0.05 -0.31,0.25 -0.41,0.36 -0.08,0.08 -0.14,0.17 -0.22,0.14 -0.04,-0.01 -0.33,-0.33 -0.39,-0.38 -0.06,-0.06 -0.12,-0.12 -0.24,-0.15 -0.05,-0.01 -0.12,-0.01 -0.18,-0.01 -0.07,0 -0.11,0.01 -0.07,0.08 0.12,0.02 0.2,-0.02 0.33,0.04 0.06,0.03 0.31,0.29 0.37,0.36 0.05,0.05 0.12,0.15 0.22,0.15 0.1,0 0.17,-0.1 0.22,-0.15l-0.01 0.01z"/>
  <path class="fil2" d="M20.19 8.46c0.07,0.03 0.26,0.01 0.33,-0.01 0.12,-0.05 0.3,-0.25 0.4,-0.35 0.07,-0.07 0.14,-0.17 0.21,-0.16 0.06,0.01 0.33,0.31 0.39,0.36 0.06,0.06 0.11,0.12 0.23,0.15 0.04,0.01 0.35,0.05 0.26,-0.06 -0.02,-0.03 -0.23,0 -0.32,-0.06 -0.04,-0.02 -0.33,-0.31 -0.38,-0.37 -0.06,-0.06 -0.12,-0.15 -0.24,-0.12 -0.15,0.04 -0.42,0.47 -0.6,0.52 -0.16,0.04 -0.3,-0.04 -0.28,0.08z"/>
  <path class="fil2" d="M19.52 7.29c0.19,0.04 0.34,-0.06 0.34,0.2l0 0.92c0,0.04 0,0.07 0.04,0.08 0.05,0 0.04,-0.06 0.04,-0.12l0 -0.57c0,-0.27 0.07,-0.58 -0.25,-0.58 -0.11,0 -0.22,-0.02 -0.17,0.08l0.01 0z"/>
  <path class="fil1" d="M19.61 6.96l0.11 -0.11c0.01,-0.01 0.02,-0.01 0.03,-0l0.12 0.12c0.01,0.01 0.01,0.02 -0,0.03l-0.11 0.11c-0.01,0.01 -0.02,0.01 -0.03,0l-0.12 -0.12c-0.01,-0.01 -0.01,-0.02 0,-0.03z"/>
  <polygon class="fil3" points="26.51,8.18 26.4,8.18 26.4,6.54 26.51,6.54 "/>
  <polygon class="fil3" points="26.35,8.18 26.29,8.18 26.29,6.54 26.35,6.54 "/>
  <polygon class="fil3" points="30.69,8.18 30.69,6.54 30.75,6.54 30.75,8.18 "/>
  <polygon class="fil3" points="30.59,8.18 30.59,6.54 30.66,6.54 30.66,8.18 "/>
  <polygon class="fil3" points="30.43,8.18 30.43,6.54 30.5,6.54 30.5,8.18 "/>
  <polygon class="fil3" points="30.21,8.18 30.21,6.54 30.27,6.54 30.27,8.18 "/>
  <polygon class="fil3" points="29.92,8.18 29.92,6.54 30.11,6.54 30.11,8.18 "/>
  <polygon class="fil3" points="29.56,8.18 29.56,6.54 29.75,6.54 29.75,8.18 "/>
  <polygon class="fil3" points="29.4,8.18 29.4,6.54 29.46,6.54 29.46,8.18 "/>
  <polygon class="fil3" points="29.25,8.18 29.25,6.54 29.35,6.54 29.35,8.18 "/>
  <polygon class="fil3" points="29.01,8.18 29.01,6.54 29.14,6.54 29.14,8.18 "/>
  <polygon class="fil3" points="28.78,8.18 28.78,6.54 28.95,6.54 28.95,8.18 "/>
  <polygon class="fil3" points="28.61,8.18 28.61,6.54 28.68,6.54 28.68,8.18 "/>
  <polygon class="fil3" points="28.3,8.18 28.3,6.54 28.37,6.54 28.37,8.18 "/>
  <polygon class="fil3" points="28.19,8.18 28.19,6.54 28.25,6.54 28.25,8.18 "/>
  <polygon class="fil3" points="28.07,8.18 28.07,6.54 28.14,6.54 28.14,8.18 "/>
  <polygon class="fil3" points="27.97,8.18 27.97,6.54 28.04,6.54 28.04,8.18 "/>
  <polygon class="fil3" points="27.87,8.18 27.87,6.54 27.94,6.54 27.94,8.18 "/>
  <polygon class="fil3" points="27.59,8.18 27.59,6.54 27.71,6.54 27.71,8.18 "/>
  <polygon class="fil3" points="27.49,8.18 27.49,6.54 27.54,6.54 27.54,8.18 "/>
  <polygon class="fil3" points="27.18,8.18 27.18,6.54 27.3,6.54 27.3,8.18 "/>
  <polygon class="fil3" points="27.08,8.18 27.08,6.54 27.14,6.54 27.14,8.18 "/>
  <polygon class="fil3" points="26.92,8.18 26.92,6.54 27.03,6.54 27.03,8.18 "/>
  <polygon class="fil3" points="26.75,8.18 26.58,8.18 26.58,6.54 26.75,6.54 "/>
  <polygon class="fil3" points="25.94,6.54 25.94,8.18 25.88,8.18 25.88,6.54 "/>
  <polygon class="fil3" points="26.23,8.18 26,8.18 26,6.54 26.23,6.54 "/>
  <polygon class="fil3" points="25.44,6.54 25.44,8.18 25.38,8.18 25.38,6.54 "/>
  <polygon class="fil3" points="25.57,6.54 25.57,8.18 25.51,8.18 25.51,6.54 "/>
  <polygon class="fil3" points="25.78,6.54 25.78,8.18 25.67,8.18 25.67,6.54 "/>
  <path class="fil4" d="M25.97 9.02c0.06,0.01 0.11,0.04 0.14,0.08 0.04,0.04 0.05,0.09 0.05,0.15 0,0.08 -0.03,0.14 -0.09,0.18 -0.06,0.04 -0.15,0.07 -0.25,0.07l-0.42 0 0 -0.92 0.4 0c0.1,0 0.18,0.02 0.24,0.06 0.06,0.04 0.09,0.1 0.09,0.17 0,0.05 -0.01,0.09 -0.04,0.13 -0.02,0.04 -0.06,0.07 -0.1,0.08l-0.01 -0.01zm-0.48 -0.36l0 0.33 0.29 0c0.07,0 0.13,-0.01 0.17,-0.04 0.04,-0.03 0.06,-0.07 0.06,-0.12 0,-0.05 -0.02,-0.09 -0.06,-0.12 -0.04,-0.03 -0.09,-0.04 -0.17,-0.04l-0.29 0 0 -0zm0.33 0.76c0.08,0 0.15,-0.01 0.19,-0.04 0.04,-0.03 0.07,-0.07 0.07,-0.13 0,-0.12 -0.08,-0.17 -0.25,-0.17l-0.33 0 0 0.34 0.33 0 -0.01 0.01zm0.97 0.09c-0.09,0 -0.17,-0.02 -0.25,-0.06 -0.07,-0.04 -0.13,-0.09 -0.17,-0.17 -0.04,-0.07 -0.07,-0.15 -0.07,-0.24 0,-0.09 0.02,-0.17 0.07,-0.24 0.04,-0.07 0.1,-0.12 0.17,-0.17 0.07,-0.04 0.15,-0.06 0.25,-0.06 0.09,0 0.17,0.02 0.25,0.06 0.07,0.04 0.13,0.09 0.17,0.17 0.04,0.07 0.07,0.15 0.07,0.24 0,0.09 -0.02,0.17 -0.07,0.24 -0.04,0.07 -0.1,0.12 -0.17,0.17 -0.07,0.04 -0.15,0.06 -0.25,0.06zm0 -0.09c0.07,0 0.14,-0.01 0.2,-0.05 0.06,-0.04 0.1,-0.08 0.14,-0.14 0.04,-0.06 0.05,-0.12 0.05,-0.2 0,-0.07 -0.01,-0.14 -0.05,-0.2 -0.04,-0.06 -0.08,-0.1 -0.14,-0.14 -0.06,-0.04 -0.12,-0.05 -0.2,-0.05 -0.07,0 -0.14,0.01 -0.2,0.05 -0.06,0.04 -0.1,0.08 -0.14,0.14 -0.04,0.06 -0.05,0.12 -0.05,0.2 0,0.07 0.01,0.14 0.05,0.2 0.04,0.06 0.08,0.1 0.14,0.14 0.06,0.03 0.12,0.05 0.2,0.05zm0.7 -0.84l0.09 0 0 0.84 0.52 0 0 0.09 -0.61 0 0 -0.92 0 -0.01zm1.43 0.84l0 0.09 -0.65 0 0 -0.92 0.63 0 0 0.09 -0.53 0 0 0.33 0.47 0 0 0.08 -0.47 0 0 0.34 0.55 0 -0.01 -0.01zm0.41 -0.75l-0.32 0 0 -0.09 0.74 0 0 0.09 -0.32 0 0 0.84 -0.09 0 0 -0.84 -0.01 0zm0.97 0.84c-0.09,0 -0.17,-0.02 -0.25,-0.06 -0.07,-0.04 -0.13,-0.09 -0.17,-0.17 -0.04,-0.07 -0.07,-0.15 -0.07,-0.24 0,-0.09 0.02,-0.17 0.07,-0.24 0.04,-0.07 0.1,-0.12 0.17,-0.17 0.07,-0.04 0.16,-0.06 0.25,-0.06 0.09,0 0.17,0.02 0.25,0.06 0.07,0.04 0.13,0.09 0.17,0.17 0.04,0.07 0.07,0.15 0.07,0.24 0,0.09 -0.02,0.17 -0.07,0.24 -0.04,0.07 -0.1,0.12 -0.17,0.17 -0.07,0.04 -0.15,0.06 -0.25,0.06zm0 -0.09c0.07,0 0.14,-0.01 0.2,-0.05 0.06,-0.04 0.1,-0.08 0.14,-0.14 0.04,-0.06 0.05,-0.12 0.05,-0.2 0,-0.07 -0.01,-0.14 -0.05,-0.2 -0.04,-0.06 -0.08,-0.1 -0.14,-0.14 -0.06,-0.04 -0.12,-0.05 -0.2,-0.05 -0.07,0 -0.14,0.01 -0.2,0.05 -0.06,0.04 -0.11,0.08 -0.14,0.14 -0.04,0.06 -0.05,0.12 -0.05,0.2 0,0.07 0.01,0.14 0.05,0.2 0.04,0.06 0.08,0.1 0.14,0.14 0.06,0.03 0.12,0.05 0.2,0.05z"/>
  <path class="fil5" d="M4.86 2.46c0,0.78 -0.63,1.41 -1.41,1.41 -0.78,0 -1.41,-0.63 -1.41,-1.41 0,-0.78 0.63,-1.41 1.41,-1.41 0.78,0 1.41,0.63 1.41,1.41z"/>
  <path class="fil6" d="M5.34 1.05c-0.36,0 -0.7,0.14 -0.95,0.36 -0.05,0.04 -0.1,0.09 -0.15,0.15l0.28 0c0.04,0.04 0.07,0.09 0.11,0.15l-0.5 0c-0.03,0.05 -0.06,0.09 -0.08,0.15l0.66 0c0.02,0.05 0.04,0.09 0.06,0.15l-0.79 0c-0.01,0.05 -0.03,0.1 -0.04,0.15l0.87 0c0.02,0.09 0.03,0.2 0.03,0.3 0,0.16 -0.02,0.31 -0.07,0.45l-0.79 0c0.01,0.05 0.04,0.1 0.06,0.15l0.66 0c-0.02,0.05 -0.05,0.1 -0.08,0.15l-0.5 0c0.03,0.05 0.07,0.1 0.11,0.15l0.28 0c-0.04,0.05 -0.09,0.1 -0.15,0.15 0.25,0.23 0.58,0.36 0.95,0.36 0.78,0 1.41,-0.63 1.41,-1.41 0,-0.78 -0.63,-1.41 -1.41,-1.41l0.02 -0.03z"/>
  <path class="fil6" d="M6.57 3.24c0,-0.02 0.02,-0.04 0.04,-0.04 0.02,0 0.04,0.02 0.04,0.04 0,0.02 -0.02,0.04 -0.04,0.04 -0.02,0 -0.04,-0.02 -0.04,-0.04zm0.04 0.04c0.02,0 0.04,-0.01 0.04,-0.04 0,-0.02 -0.01,-0.04 -0.04,-0.04 -0.02,0 -0.04,0.01 -0.04,0.04 0,0.02 0.01,0.04 0.04,0.04zm-0.01 -0.01l-0.01 0 0 -0.04 0.01 0c0,0 0.01,0 0.01,0 0,0 0.01,0.01 0.01,0.01 0,0.01 0,0.01 -0.01,0.01l0.01 0.01 -0.01 0 -0.01 -0.01 -0.01 0 0 0.01 0 0.01zm0 -0.02l0.01 0c0,0 0.01,0 0.01,0 0,0 0,0 0,-0.01 0,0 0,0 0,-0.01 0,0 -0.01,0 -0.01,0l-0.01 0 0 0.01 0 0.01z"/>
  <path class="fil7" d="M3.12 2.61c-0.01,0 -0.02,0 -0.04,0 -0.09,0 -0.13,0.03 -0.13,0.09 0,0.04 0.02,0.06 0.06,0.06 0.07,0 0.11,-0.06 0.11,-0.15zm0.11 0.26c-0.02,0 -0.12,0 -0.12,0l0 -0.06c-0.04,0.05 -0.09,0.07 -0.16,0.07 -0.08,0 -0.14,-0.07 -0.14,-0.16 0,-0.15 0.1,-0.23 0.27,-0.23 0.01,0 0.04,0 0.07,0.01 0.01,-0.02 0.01,-0.03 0.01,-0.04 0,-0.04 -0.03,-0.05 -0.1,-0.05 -0.07,0 -0.14,0.01 -0.16,0.03 0,-0.01 0.02,-0.13 0.02,-0.13 0.07,-0.02 0.12,-0.03 0.18,-0.03 0.13,0 0.2,0.06 0.2,0.17 0,0.03 -0.01,0.07 -0.01,0.12 -0.01,0.09 -0.04,0.26 -0.04,0.31l-0.01 -0.01z"/>
  <polygon class="fil7" points="2.75,2.87 2.6,2.87 2.68,2.32 2.49,2.87 2.38,2.87 2.37,2.32 2.28,2.87 2.13,2.87 2.25,2.15 2.47,2.15 2.49,2.55 2.62,2.15 2.86,2.15 "/>
  <path class="fil7" d="M5.53 2.61c-0.01,0 -0.02,0 -0.04,0 -0.09,0 -0.13,0.03 -0.13,0.09 0,0.04 0.02,0.06 0.06,0.06 0.07,0 0.11,-0.06 0.11,-0.15zm0.11 0.26c-0.02,0 -0.12,0 -0.12,0l0 -0.06c-0.04,0.05 -0.09,0.07 -0.16,0.07 -0.08,0 -0.14,-0.07 -0.14,-0.16 0,-0.15 0.1,-0.23 0.27,-0.23 0.01,0 0.04,0 0.07,0.01 0.01,-0.02 0.01,-0.03 0.01,-0.04 0,-0.04 -0.03,-0.05 -0.09,-0.05 -0.07,0 -0.14,0.01 -0.16,0.03 0,-0.01 0.02,-0.13 0.02,-0.13 0.07,-0.02 0.12,-0.03 0.18,-0.03 0.13,0 0.2,0.06 0.2,0.17 0,0.03 -0.01,0.07 -0.01,0.12 -0.01,0.09 -0.04,0.26 -0.04,0.31l-0.01 -0.01z"/>
  <path class="fil7" d="M3.91 2.86c-0.04,0.01 -0.07,0.02 -0.11,0.02 -0.08,0 -0.12,-0.04 -0.12,-0.13 0,-0.03 0.01,-0.09 0.02,-0.15 0.01,-0.05 0.07,-0.4 0.07,-0.4l0.15 0 -0.01 0.09 0.09 0 -0.02 0.14 -0.09 0c-0.01,0.11 -0.04,0.25 -0.04,0.27 0,0.03 0.01,0.04 0.05,0.04 0.01,0 0.03,0 0.04,-0.01l-0.02 0.13z"/>
  <path class="fil7" d="M4.38 2.86c-0.05,0.01 -0.1,0.02 -0.15,0.02 -0.17,0 -0.26,-0.09 -0.26,-0.26 0,-0.2 0.12,-0.34 0.27,-0.34 0.12,0 0.2,0.08 0.2,0.21 0,0.04 -0.01,0.09 -0.02,0.15l-0.31 0c-0.01,0.09 0.04,0.12 0.13,0.12 0.05,0 0.1,-0.01 0.16,-0.04l-0.02 0.15 0 0zm-0.09 -0.34c0,-0.01 0.01,-0.1 -0.07,-0.1 -0.05,0 -0.08,0.04 -0.09,0.1l0.17 0z"/>
  <path class="fil7" d="M3.32 2.47c0,0.07 0.04,0.12 0.12,0.16 0.07,0.03 0.07,0.04 0.07,0.07 0,0.04 -0.03,0.05 -0.09,0.05 -0.04,0 -0.09,-0.01 -0.14,-0.02 0,0 -0.02,0.13 -0.02,0.13 0.04,0.01 0.07,0.01 0.16,0.01 0.16,0 0.23,-0.06 0.23,-0.2 0,-0.08 -0.03,-0.12 -0.11,-0.16 -0.07,-0.03 -0.07,-0.04 -0.07,-0.07 0,-0.03 0.03,-0.05 0.07,-0.05 0.03,0 0.07,0 0.11,0.01l0.02 -0.14c-0.04,-0.01 -0.1,-0.01 -0.14,-0.01 -0.17,0 -0.23,0.09 -0.23,0.2l0.01 0.02z"/>
  <path class="fil7" d="M5.13 2.29c0.04,0 0.08,0.01 0.14,0.04l0.02 -0.15c-0.02,-0.01 -0.1,-0.06 -0.17,-0.06 -0.1,0 -0.19,0.05 -0.25,0.14 -0.09,-0.03 -0.12,0.03 -0.17,0.09l-0.04 0.01c0,-0.02 0.01,-0.04 0.01,-0.06l-0.14 0c-0.02,0.18 -0.05,0.36 -0.08,0.55l-0.01 0.04 0.15 0c0.03,-0.17 0.04,-0.28 0.05,-0.34l0.06 -0.03c0.01,-0.03 0.04,-0.04 0.09,-0.04 -0.01,0.04 -0.01,0.08 -0.01,0.12 0,0.19 0.1,0.31 0.27,0.31 0.04,0 0.08,-0.01 0.14,-0.02l0.03 -0.16c-0.05,0.02 -0.09,0.04 -0.13,0.04 -0.09,0 -0.15,-0.07 -0.15,-0.17 0,-0.16 0.08,-0.27 0.2,-0.27l-0.02 0z"/>
  <path class="fil7" d="M6.42 2.15l-0.04 0.2c-0.04,-0.06 -0.09,-0.09 -0.15,-0.09 -0.08,0 -0.15,0.06 -0.2,0.15 -0.07,-0.01 -0.13,-0.04 -0.13,-0.04l0 0c0.01,-0.05 0.01,-0.08 0.01,-0.09l-0.14 0c-0.02,0.18 -0.05,0.36 -0.08,0.55l-0.01 0.04 0.15 0c0.02,-0.13 0.04,-0.25 0.05,-0.33 0.05,-0.05 0.08,-0.09 0.13,-0.09 -0.02,0.06 -0.04,0.12 -0.04,0.19 0,0.15 0.07,0.24 0.18,0.24 0.06,0 0.1,-0.02 0.14,-0.07l-0.01 0.05 0.15 0 0.12 -0.71 -0.15 0 0.01 0.01zm-0.19 0.58c-0.05,0 -0.08,-0.04 -0.08,-0.12 0,-0.12 0.05,-0.2 0.12,-0.2 0.05,0 0.08,0.04 0.08,0.12 0,0.12 -0.05,0.2 -0.12,0.2l0.01 0z"/>
  <polygon class="fil8" points="2.79,2.83 2.64,2.83 2.73,2.28 2.53,2.83 2.42,2.83 2.41,2.28 2.32,2.83 2.17,2.83 2.3,2.11 2.52,2.11 2.52,2.55 2.67,2.11 2.91,2.11 "/>
  <path class="fil8" d="M3.17 2.57c-0.01,0 -0.02,0 -0.04,0 -0.09,0 -0.13,0.03 -0.13,0.09 0,0.04 0.02,0.06 0.06,0.06 0.07,0 0.11,-0.06 0.11,-0.15zm0.11 0.26c-0.02,0 -0.12,0 -0.12,0l0 -0.06c-0.04,0.05 -0.09,0.07 -0.16,0.07 -0.08,0 -0.14,-0.07 -0.14,-0.16 0,-0.15 0.1,-0.23 0.27,-0.23 0.01,0 0.04,0 0.07,0.01 0.01,-0.02 0.01,-0.03 0.01,-0.04 0,-0.04 -0.03,-0.05 -0.1,-0.05 -0.07,0 -0.14,0.01 -0.16,0.03 0,-0.01 0.02,-0.13 0.02,-0.13 0.07,-0.02 0.12,-0.03 0.18,-0.03 0.13,0 0.2,0.06 0.2,0.17 0,0.03 -0.01,0.07 -0.01,0.12 -0.01,0.09 -0.04,0.26 -0.04,0.31l-0.01 -0.01z"/>
  <path class="fil8" d="M5.33 2.13l-0.02 0.15c-0.06,-0.03 -0.09,-0.04 -0.14,-0.04 -0.12,0 -0.2,0.11 -0.2,0.27 0,0.11 0.05,0.17 0.15,0.17 0.04,0 0.08,-0.01 0.13,-0.04l-0.03 0.16c-0.06,0.01 -0.09,0.02 -0.14,0.02 -0.17,0 -0.27,-0.12 -0.27,-0.31 0,-0.25 0.15,-0.44 0.34,-0.44 0.07,0 0.15,0.03 0.17,0.04l0.01 0z"/>
  <path class="fil8" d="M5.58 2.57c-0.01,0 -0.02,0 -0.04,0 -0.09,0 -0.13,0.03 -0.13,0.09 0,0.04 0.02,0.06 0.06,0.06 0.07,0 0.11,-0.06 0.11,-0.15zm0.11 0.26c-0.02,0 -0.12,0 -0.12,0l0 -0.06c-0.04,0.05 -0.09,0.07 -0.16,0.07 -0.08,0 -0.14,-0.07 -0.14,-0.16 0,-0.15 0.1,-0.23 0.27,-0.23 0.01,0 0.04,0 0.07,0.01 0.01,-0.02 0.01,-0.03 0.01,-0.04 0,-0.04 -0.03,-0.05 -0.09,-0.05 -0.07,0 -0.14,0.01 -0.16,0.03 0,-0.01 0.02,-0.13 0.02,-0.13 0.08,-0.02 0.12,-0.03 0.18,-0.03 0.13,0 0.2,0.06 0.2,0.17 0,0.03 -0.01,0.07 -0.01,0.12 -0.01,0.09 -0.04,0.26 -0.04,0.31l-0.01 -0.01z"/>
  <path class="fil8" d="M3.96 2.82c-0.04,0.01 -0.07,0.02 -0.11,0.02 -0.08,0 -0.12,-0.04 -0.12,-0.13 0,-0.03 0.01,-0.09 0.02,-0.15 0.01,-0.05 0.07,-0.4 0.07,-0.4l0.15 0 -0.01 0.09 0.08 0 -0.02 0.14 -0.08 0c-0.01,0.11 -0.04,0.25 -0.04,0.27 0,0.03 0.01,0.04 0.05,0.04 0.01,0 0.03,0 0.04,-0.01l-0.02 0.13z"/>
  <path class="fil8" d="M4.43 2.81c-0.05,0.01 -0.1,0.02 -0.16,0.02 -0.17,0 -0.26,-0.09 -0.26,-0.26 0,-0.2 0.12,-0.35 0.27,-0.35 0.12,0 0.2,0.08 0.2,0.21 0,0.04 -0.01,0.09 -0.02,0.15l-0.31 0c-0.01,0.09 0.04,0.12 0.13,0.12 0.05,0 0.1,-0.01 0.16,-0.04l-0.02 0.15 0.01 0.01zm-0.09 -0.34c0,-0.01 0.01,-0.1 -0.07,-0.1 -0.05,0 -0.08,0.04 -0.09,0.1l0.17 0z"/>
  <path class="fil8" d="M3.37 2.43c0,0.07 0.04,0.12 0.12,0.16 0.07,0.03 0.07,0.04 0.07,0.07 0,0.04 -0.03,0.05 -0.09,0.05 -0.04,0 -0.09,-0.01 -0.14,-0.02 0,0 -0.02,0.13 -0.02,0.13 0.04,0.01 0.07,0.01 0.16,0.01 0.16,0 0.23,-0.06 0.23,-0.2 0,-0.08 -0.03,-0.12 -0.11,-0.16 -0.07,-0.03 -0.07,-0.04 -0.07,-0.07 0,-0.03 0.02,-0.05 0.07,-0.05 0.03,0 0.07,0 0.11,0.01l0.02 -0.14c-0.04,-0.01 -0.1,-0.01 -0.14,-0.01 -0.17,0 -0.23,0.09 -0.23,0.2l0.01 0.02z"/>
  <path class="fil8" d="M6.5 2.83l-0.15 0 0.01 -0.05c-0.04,0.04 -0.09,0.07 -0.14,0.07 -0.11,0 -0.18,-0.09 -0.18,-0.24 0,-0.2 0.12,-0.36 0.25,-0.36 0.06,0 0.1,0.02 0.15,0.08l0.04 -0.2 0.15 0 -0.12 0.71 -0.01 -0.01zm-0.23 -0.13c0.07,0 0.12,-0.08 0.12,-0.2 0,-0.07 -0.03,-0.12 -0.08,-0.12 -0.07,0 -0.12,0.08 -0.12,0.2 0,0.07 0.03,0.12 0.08,0.12l-0.01 0z"/>
  <path class="fil8" d="M5.83 2.25c-0.02,0.18 -0.05,0.36 -0.08,0.55l-0.01 0.04 0.15 0c0.06,-0.36 0.07,-0.42 0.15,-0.41 0.01,-0.07 0.04,-0.14 0.06,-0.17 -0.07,-0.01 -0.1,0.02 -0.15,0.09 0.01,-0.03 0.01,-0.06 0.01,-0.09l-0.14 0 0 -0.01z"/>
  <path class="fil8" d="M4.57 2.25c-0.02,0.18 -0.05,0.36 -0.08,0.55l-0.01 0.04 0.15 0c0.06,-0.36 0.07,-0.42 0.15,-0.41 0.01,-0.07 0.04,-0.14 0.06,-0.17 -0.07,-0.01 -0.1,0.02 -0.15,0.09 0.01,-0.03 0.01,-0.06 0.01,-0.09l-0.14 0 0 -0.01z"/>
  <path class="fil8" d="M6.57 2.78c0,-0.02 0.02,-0.04 0.04,-0.04 0.02,0 0.04,0.02 0.04,0.04 0,0.02 -0.02,0.04 -0.04,0.04 -0.02,0 -0.04,-0.02 -0.04,-0.04zm0.04 0.04c0.02,0 0.04,-0.01 0.04,-0.04 0,-0.02 -0.01,-0.04 -0.04,-0.04 -0.02,0 -0.04,0.01 -0.04,0.04 0,0.02 0.01,0.04 0.04,0.04zm-0.01 -0.01l-0.01 0 0 -0.04 0.01 0c0,0 0.01,0 0.01,0 0,0 0.01,0.01 0.01,0.01 0,0.01 0,0.01 -0.01,0.01l0.01 0.01 -0.01 0 -0.01 -0.01 -0.01 0 0 0.01 0 0.01zm0 -0.02l0.01 0c0,0 0.01,0 0.01,0 0,0 0,0 0,-0.01 0,0 0,0 0,-0.01 0,0 -0.01,0 -0.01,0l-0.01 0 0 0.01 0 0.01z"/>
  <polygon class="fil9" points="13.75,3.39 13.26,3.39 13.56,1.52 14.05,1.52 "/>
  <path class="fil9" d="M12.86 1.52l-0.47 1.28 -0.06 -0.28 0 0 -0.16 -0.84c0,0 -0.02,-0.17 -0.23,-0.17l-0.76 0 -0.01 0.03c0,0 0.23,0.05 0.51,0.21l0.42 1.62 0.51 0 0.77 -1.87 -0.52 0 0 0.01z"/>
  <path class="fil9" d="M16.13 2.73l0.25 -0.7 0.15 0.7 -0.4 0zm0.54 0.66l0.44 0 -0.39 -1.87 -0.39 0c-0.18,0 -0.23,0.14 -0.23,0.14l-0.73 1.72 0.51 0 0.1 -0.28 0.62 0 0.06 0.28 0 0.01z"/>
  <path class="fil9" d="M15.43 1.97l0.07 -0.4c0,0 -0.21,-0.08 -0.44,-0.08 -0.24,0 -0.81,0.1 -0.81,0.62 0,0.48 0.67,0.49 0.67,0.74 0,0.25 -0.6,0.21 -0.8,0.05l-0.07 0.42c0,0 0.22,0.11 0.55,0.11 0.33,0 0.83,-0.17 0.83,-0.64 0,-0.49 -0.68,-0.53 -0.68,-0.74 0,-0.21 0.47,-0.18 0.68,-0.07l0 -0.01z"/>
  <path class="fil10" d="M12.33 2.53l-0.16 -0.84c0,0 -0.02,-0.17 -0.23,-0.17l-0.76 0 -0.01 0.03c0,0 0.37,0.07 0.72,0.36 0.33,0.28 0.45,0.61 0.45,0.61l-0.01 0z"/>
  <path class="fil11" d="M21.23 1.78c0.07,-0.02 0.15,-0.04 0.23,-0.04 0.34,0 0.63,0.25 0.7,0.57l0.49 -0.1c-0.11,-0.55 -0.6,-0.96 -1.18,-0.97l-0.02 0c-0.13,0 -0.25,0.02 -0.37,0.07l0.16 0.47z"/>
  <path class="fil12" d="M20.65 3.36l0.33 -0.37c-0.15,-0.13 -0.24,-0.32 -0.24,-0.53 0,-0.21 0.09,-0.4 0.24,-0.53l-0.33 -0.37c-0.25,0.22 -0.41,0.55 -0.41,0.9 0,0.36 0.16,0.68 0.41,0.9z"/>
  <path class="fil13" d="M22.15 2.6c-0.07,0.33 -0.35,0.57 -0.7,0.57 -0.08,0 -0.15,-0.01 -0.23,-0.04l-0.16 0.47c0.12,0.04 0.25,0.07 0.39,0.07 0.58,0 1.07,-0.41 1.19,-0.97l-0.49 -0.1z"/>
  <path class="fil14" d="M24.04 2.86c0,0 0,0 0,0l-0.01 -0.01c-0.04,0.07 -0.1,0.12 -0.18,0.15 -0.15,0.07 -0.29,0.05 -0.39,-0.04l-0.01 0.01c0,0 0,0 0,0l-0.17 0.25c0.04,0.03 0.09,0.05 0.14,0.07 0.19,0.08 0.38,0.07 0.57,-0.01 0.14,-0.06 0.25,-0.15 0.32,-0.26l-0.26 -0.17 -0.01 -0.01zm-0.53 -0.63c-0.16,0.07 -0.24,0.22 -0.23,0.39l0.67 -0.29c-0.12,-0.14 -0.26,-0.18 -0.44,-0.1zm-0.44 0.77c-0.01,-0.03 -0.04,-0.07 -0.05,-0.09 -0.08,-0.18 -0.08,-0.36 -0.01,-0.55 0.07,-0.2 0.21,-0.34 0.39,-0.42 0.23,-0.09 0.47,-0.08 0.68,0.05 0.14,0.08 0.23,0.2 0.31,0.37 0.01,0.02 0.01,0.04 0.02,0.07l-1.33 0.58 -0 -0.01z"/>
  <path class="fil14" d="M24.86 1.57l0 1.41 0.22 0.09 -0.12 0.29 -0.24 -0.1c-0.05,-0.02 -0.09,-0.06 -0.12,-0.1 -0.03,-0.04 -0.04,-0.1 -0.04,-0.17l0 -1.42 0.31 0 -0.01 0.01z"/>
  <path class="fil14" d="M25.43 2.62c0,-0.12 0.05,-0.23 0.14,-0.3l-0.23 -0.25c-0.15,0.14 -0.25,0.33 -0.25,0.55 0,0.22 0.09,0.41 0.25,0.55l0.23 -0.25c-0.08,-0.07 -0.14,-0.18 -0.14,-0.3l0 0z"/>
  <path class="fil14" d="M25.83 3.02c-0.04,0 -0.09,-0.01 -0.12,-0.02l-0.11 0.32c0.07,0.02 0.15,0.04 0.23,0.04 0.36,0 0.65,-0.25 0.72,-0.59l-0.33 -0.07c-0.04,0.18 -0.2,0.32 -0.39,0.32l-0 -0z"/>
  <path class="fil14" d="M25.83 1.88c-0.08,0 -0.16,0.01 -0.23,0.04l0.11 0.32c0.04,-0.01 0.08,-0.02 0.12,-0.02 0.2,0 0.36,0.14 0.39,0.32l0.33 -0.07c-0.07,-0.33 -0.36,-0.59 -0.72,-0.59l0 -0z"/>
  <path class="fil4" d="M30.38 1.88l-0.12 -0.29 -0.12 0.29 0.23 0 -0 0zm2.6 -0.12l0 0c-0.02,0.01 -0.05,0.01 -0.09,0.01l-0.21 0 0 -0.16 0.21 0c0.03,0 0.06,0 0.08,0.01 0.02,0.01 0.04,0.04 0.04,0.07 0,0.03 -0.01,0.06 -0.04,0.07l0.01 0zm1.5 0.12l0 0 -0.12 -0.29 -0.12 0.29 0.24 0 -0.01 0zm-2.79 0.31l0 0 -0.17 0 0 -0.57 -0.25 0.57 -0.15 0 -0.25 -0.57 0 0.57 -0.35 0 -0.07 -0.16 -0.36 0 -0.07 0.16 -0.19 0 0.31 -0.72 0.25 0 0.29 0.68 0 -0.68 0.28 0 0.23 0.49 0.21 -0.49 0.29 0 0 0.72 0 0 -0.01 0zm0.71 0l0 0 -0.57 0 0 -0.72 0.57 0 0 0.15 -0.41 0 0 0.13 0.39 0 0 0.15 -0.39 0 0 0.15 0.41 0 0 0.15 0 -0.01zm0.81 -0.53l0 0c0,0.12 -0.08,0.17 -0.12,0.2 0.04,0.01 0.07,0.04 0.09,0.06 0.02,0.04 0.03,0.07 0.03,0.13l0 0.15 -0.17 0 0 -0.09c0,-0.04 0.01,-0.11 -0.03,-0.14 -0.02,-0.02 -0.07,-0.03 -0.12,-0.03l-0.18 0 0 0.26 -0.17 0 0 -0.72 0.4 0c0.09,0 0.15,0 0.21,0.04 0.05,0.03 0.09,0.08 0.09,0.16l-0.01 -0.01zm0.28 0.53l0 0 -0.17 0 0 -0.72 0.17 0 0 0.72zm2.04 0l0 0 -0.25 0 -0.33 -0.55 0 0.55 -0.35 0 -0.07 -0.16 -0.36 0 -0.07 0.16 -0.2 0c-0.09,0 -0.19,-0.02 -0.25,-0.08 -0.06,-0.06 -0.09,-0.15 -0.09,-0.28 0,-0.11 0.02,-0.2 0.09,-0.28 0.06,-0.06 0.15,-0.09 0.26,-0.09l0.17 0 0 0.15 -0.17 0c-0.07,0 -0.1,0.01 -0.13,0.04 -0.03,0.03 -0.05,0.09 -0.05,0.17 0,0.08 0.01,0.13 0.05,0.17 0.03,0.03 0.07,0.04 0.12,0.04l0.08 0 0.24 -0.57 0.26 0 0.29 0.68 0 -0.68 0.26 0 0.31 0.5 0 -0.5 0.17 0 0 0.72 -0.01 0.01zm-5.41 0.15l0.07 -0.16 0.15 0 0.07 0.16 0.58 0 0 -0.12 0.05 0.12 0.3 0 0.05 -0.12 0 0.12 1.44 0 0 -0.26 0.03 0c0.02,0 0.02,0 0.02,0.04l0 0.23 0.75 0 0 -0.06c0.06,0.03 0.15,0.06 0.28,0.06l0.31 0 0.07 -0.16 0.15 0 0.07 0.16 0.6 0 0 -0.15 0.09 0.15 0.49 0 0 -1.01 -0.48 0 0 0.12 -0.07 -0.12 -0.49 0 0 0.12 -0.06 -0.12 -0.66 0c-0.11,0 -0.21,0.01 -0.29,0.06l0 -0.06 -0.46 0 0 0.06c-0.05,-0.04 -0.12,-0.06 -0.2,-0.06l-1.68 0 -0.11 0.26 -0.12 -0.26 -0.53 0 0 0.12 -0.06 -0.12 -0.45 0 -0.21 0.48 0 0.53 0.3 0 0.01 0z"/>
  <path class="fil4" d="M35.97 2.87l-0.31 0c-0.03,0 -0.05,0 -0.07,0.01 -0.02,0.01 -0.02,0.03 -0.02,0.05 0,0.03 0.01,0.04 0.04,0.05 0.01,0.01 0.04,0.01 0.07,0.01l0.09 0c0.09,0 0.16,0.02 0.2,0.06 0.01,0.01 0.01,0.01 0.01,0.01l0 -0.2 0 0.01zm0 0.48l0 0c-0.04,0.06 -0.12,0.09 -0.23,0.09l-0.33 0 0 -0.15 0.33 0c0.04,0 0.06,-0.01 0.07,-0.01 0.01,-0.01 0.02,-0.03 0.02,-0.04 0,-0.02 -0.01,-0.04 -0.02,-0.05 -0.01,-0.01 -0.03,-0.01 -0.06,-0.01 -0.16,-0.01 -0.36,0.01 -0.36,-0.23 0,-0.1 0.07,-0.22 0.25,-0.22l0.34 0 0 -0.15 -0.32 0c-0.09,0 -0.17,0.02 -0.22,0.06l0 -0.06 -0.47 0c-0.07,0 -0.17,0.02 -0.2,0.06l0 -0.06 -0.84 0 0 0.06c-0.07,-0.05 -0.18,-0.06 -0.23,-0.06l-0.56 0 0 0.06c-0.05,-0.05 -0.17,-0.06 -0.24,-0.06l-0.63 0 -0.15 0.15 -0.13 -0.15 -0.93 0 0 1.01 0.92 0 0.15 -0.16 0.14 0.16 0.56 0 0 -0.24 0.06 0c0.07,0 0.16,0 0.24,-0.04l0 0.27 0.47 0 0 -0.26 0.02 0c0.03,0 0.03,0 0.03,0.03l0 0.23 1.41 0c0.09,0 0.18,-0.02 0.23,-0.07l0 0.07 0.45 0c0.09,0 0.18,-0.01 0.25,-0.04l0 -0.19 -0.01 0zm-0.69 -0.29l0 0c0.04,0.04 0.05,0.08 0.05,0.15 0,0.15 -0.09,0.23 -0.27,0.23l-0.33 0 0 -0.15 0.33 0c0.04,0 0.06,-0.01 0.07,-0.01 0.01,-0.01 0.02,-0.03 0.02,-0.04 0,-0.02 -0.01,-0.04 -0.02,-0.05 -0.01,-0.01 -0.03,-0.01 -0.06,-0.01 -0.16,-0.01 -0.36,0.01 -0.36,-0.23 0,-0.1 0.07,-0.22 0.25,-0.22l0.35 0 0 0.15 -0.32 0c-0.03,0 -0.05,0 -0.07,0.01 -0.02,0.01 -0.03,0.03 -0.03,0.05 0,0.03 0.01,0.04 0.04,0.05 0.01,0.01 0.04,0.01 0.07,0.01l0.09 0c0.09,0 0.16,0.02 0.2,0.06l0 0.01zm-1.56 -0.04l0 0c-0.02,0.01 -0.05,0.01 -0.09,0.01l-0.21 0 0 -0.16 0.21 0c0.03,0 0.06,0 0.08,0.01 0.02,0.01 0.04,0.04 0.04,0.07 0,0.03 -0.01,0.06 -0.04,0.07l0.01 -0.01zm0.1 0.09l0 0c0.04,0.01 0.07,0.04 0.09,0.06 0.02,0.04 0.03,0.07 0.03,0.13l0 0.15 -0.17 0 0 -0.09c0,-0.04 0.01,-0.11 -0.03,-0.14 -0.02,-0.03 -0.07,-0.03 -0.12,-0.03l-0.18 0 0 0.26 -0.17 0 0 -0.72 0.4 0c0.09,0 0.15,0 0.21,0.04 0.05,0.04 0.09,0.08 0.09,0.16 0,0.12 -0.08,0.17 -0.12,0.19l-0.01 -0.01zm0.22 -0.39l0 0 0.57 0 0 0.15 -0.41 0 0 0.13 0.39 0 0 0.15 -0.39 0 0 0.15 0.41 0 0 0.15 -0.57 0 0 -0.72 0 -0.01zm-1.16 0.33l0 0 -0.23 0 0 -0.18 0.23 0c0.07,0 0.11,0.02 0.11,0.09 0,0.07 -0.04,0.09 -0.11,0.09zm-0.39 0.32l0 0 -0.26 -0.3 0.26 -0.28 0 0.58 0 0zm-0.68 -0.09l0 0 -0.42 0 0 -0.15 0.38 0 0 -0.15 -0.38 0 0 -0.13 0.44 0 0.19 0.21 -0.2 0.21 -0.01 0zm1.37 -0.33l0 0c0,0.2 -0.15,0.24 -0.3,0.24l-0.22 0 0 0.24 -0.33 0 -0.21 -0.24 -0.22 0.24 -0.68 0 0 -0.72 0.7 0 0.21 0.24 0.22 -0.24 0.55 0c0.14,0 0.29,0.04 0.29,0.24l-0.01 -0z"/>
  <path class="fil15" d="M41.17 1.43c-0.17,0 -0.51,0 -0.51,0 -0.23,0.01 -0.41,0.1 -0.47,0.29 -0.03,0.09 -0.04,0.2 -0.07,0.31 -0.11,0.52 -0.21,1.04 -0.31,1.55l3.97 0c0.31,0 0.52,-0.07 0.57,-0.31 0.03,-0.12 0.05,-0.24 0.08,-0.36 0.1,-0.49 0.2,-0.97 0.3,-1.47l-3.56 0 -0.01 -0.01z"/>
  <path class="fil16" d="M43.22 2.71c-0.06,0.05 -0.21,0.07 -0.2,-0.06 0.01,-0.11 0.13,-0.13 0.25,-0.12 -0.01,0.06 -0.02,0.13 -0.07,0.17l0.01 0zm-0.17 -0.41c-0.01,0.03 -0.01,0.06 -0.02,0.09 0.07,-0.01 0.26,-0.07 0.28,0.02 0.01,0.03 -0.01,0.06 -0.01,0.08 -0.17,-0.01 -0.32,0.01 -0.36,0.14 -0.03,0.09 0,0.17 0.06,0.19 0.1,0.04 0.23,-0.01 0.28,-0.08 -0.01,0.02 -0.01,0.05 -0.01,0.08l0.09 0c0,-0.09 0.01,-0.16 0.03,-0.24 0.01,-0.07 0.04,-0.13 0.03,-0.2 -0.01,-0.14 -0.23,-0.09 -0.36,-0.09l0.01 0.01zm0.92 0.46c-0.07,0 -0.11,-0.04 -0.11,-0.12 0,-0.13 0.05,-0.28 0.17,-0.28 0.05,-0.01 0.09,0.01 0.13,0.02 -0.04,0.15 -0.02,0.38 -0.19,0.39l0 -0.01zm0.24 -0.68c-0.01,0.08 -0.02,0.16 -0.04,0.23 -0.26,-0.08 -0.42,0.11 -0.42,0.35 0,0.04 0.01,0.09 0.04,0.12 0.05,0.06 0.19,0.07 0.26,0.02 0.01,-0.01 0.03,-0.03 0.04,-0.04 0.01,-0.01 0.01,-0.03 0.02,-0.02 -0.01,0.02 -0.01,0.05 -0.01,0.08l0.09 0c0.02,-0.27 0.08,-0.49 0.12,-0.74l-0.11 0 0.01 -0.01zm-2.73 0.65c-0.06,0.06 -0.2,0.06 -0.21,-0.04 -0.01,-0.04 0.01,-0.09 0.02,-0.14 0.01,-0.04 0.01,-0.09 0.02,-0.13 0.06,-0.07 0.23,-0.08 0.24,0.04 0.01,0.1 -0.02,0.23 -0.07,0.28l-0 -0zm0.09 -0.42c-0.09,-0.04 -0.2,0.01 -0.25,0.04 0,0 0,0 0,0 0,0 0,0 0,0 0,0 0,0 0,0 0,-0.01 0.01,-0.03 0.01,-0.04l-0.09 0c-0.04,0.25 -0.09,0.5 -0.13,0.75l0.11 0c0.01,-0.09 0.03,-0.2 0.04,-0.28 0.02,0.09 0.18,0.07 0.25,0.04 0.14,-0.07 0.25,-0.43 0.06,-0.5zm0.51 0.18l-0.25 0c0.01,-0.06 0.06,-0.12 0.14,-0.12 0.08,0 0.13,0.03 0.11,0.12l0.01 0zm-0.1 -0.19c-0.08,0.01 -0.15,0.03 -0.19,0.08 -0.06,0.06 -0.1,0.19 -0.09,0.31 0.02,0.17 0.23,0.17 0.41,0.12 0,-0.03 0.01,-0.06 0.01,-0.09 -0.07,0.03 -0.2,0.07 -0.27,0.01 -0.06,-0.04 -0.06,-0.12 -0.04,-0.2 0.12,0 0.23,0 0.35,0 0.01,-0.05 0.03,-0.12 0.01,-0.17 -0.02,-0.07 -0.11,-0.09 -0.2,-0.08l-0 -0zm-0.94 0.01c0,0 0,0.01 0,0.01 -0.02,0.17 -0.06,0.34 -0.09,0.51l0.11 0c0.03,-0.17 0.06,-0.35 0.09,-0.52l-0.11 0 -0.01 0zm2.78 0c-0.09,-0.04 -0.17,0.03 -0.2,0.08 0.01,-0.02 0.01,-0.06 0.01,-0.08l-0.09 0c-0.02,0.17 -0.06,0.35 -0.09,0.52l0.11 0c0,-0.07 0.01,-0.12 0.02,-0.19 0.02,-0.15 0.06,-0.3 0.23,-0.25 0.01,-0.02 0.01,-0.05 0.01,-0.07l0.01 0zm-1.2 0.39c-0.01,-0.02 -0.01,-0.07 -0.01,-0.1 0.01,-0.07 0.03,-0.16 0.07,-0.2 0.06,-0.05 0.17,-0.04 0.25,-0.01 0,-0.03 0.01,-0.06 0.01,-0.09 -0.15,-0.02 -0.28,-0.01 -0.36,0.07 -0.07,0.07 -0.12,0.25 -0.09,0.36 0.04,0.12 0.21,0.13 0.35,0.09 0.01,-0.02 0.01,-0.05 0.01,-0.08 -0.07,0.04 -0.23,0.06 -0.25,-0.03l0 -0zm-0.06 -0.39c-0.09,-0.04 -0.17,0.03 -0.2,0.09 0.01,-0.03 0.01,-0.06 0.01,-0.09l-0.09 0c-0.02,0.18 -0.06,0.35 -0.09,0.52l0.11 0c0.01,-0.1 0.02,-0.24 0.06,-0.33 0.03,-0.08 0.09,-0.15 0.2,-0.11 0,-0.03 0.01,-0.05 0.01,-0.08l-0.01 0.01zm-1.72 -0.21c-0.01,0.1 -0.03,0.2 -0.05,0.29 -0.11,0 -0.23,0.01 -0.33,0 0.02,-0.09 0.04,-0.2 0.06,-0.29l-0.12 0c-0.04,0.24 -0.08,0.49 -0.13,0.73l0.12 0c0.02,-0.12 0.04,-0.25 0.07,-0.36 0.1,0 0.23,-0.01 0.33,0 -0.02,0.12 -0.04,0.23 -0.07,0.36l0.12 0c0.04,-0.25 0.08,-0.49 0.13,-0.73l-0.12 0 -0.01 0.01zm0.31 0.11c0.02,-0.01 0.05,-0.08 0.01,-0.11 -0.01,-0.01 -0.03,-0.01 -0.05,-0.01 -0.02,0 -0.04,0.01 -0.04,0.02 -0.01,0.02 -0.03,0.07 -0.01,0.09 0.02,0.02 0.07,0.01 0.08,0l0.01 0z"/>
 </g>
</svg>
