<?xml version="1.0" encoding="UTF-8"?>
<!DOCTYPE svg PUBLIC "-//W3C//DTD SVG 1.1//EN" "http://www.w3.org/Graphics/SVG/1.1/DTD/svg11.dtd">
<!-- Creator: CorelDRAW -->
<svg xmlns="http://www.w3.org/2000/svg" xml:space="preserve" width="27.2005mm" height="2.0931mm" version="1.1" style="shape-rendering:geometricPrecision; text-rendering:geometricPrecision; image-rendering:optimizeQuality; fill-rule:evenodd; clip-rule:evenodd"
viewBox="0 0 82.16 6.32"
 xmlns:xlink="http://www.w3.org/1999/xlink"
 xmlns:xodm="http://www.corel.com/coreldraw/odm/2003">
 <defs>
  <style type="text/css">
   <![CDATA[
    .fil18 {fill:#FEFEFE}
    .fil4 {fill:#96989A}
    .fil17 {fill:#9B3234}
    .fil15 {fill:black}
    .fil2 {fill:#31BDAE}
    .fil3 {fill:white}
    .fil1 {fill:white}
    .fil8 {fill:#FEFEFE;fill-rule:nonzero}
    .fil14 {fill:black;fill-rule:nonzero}
    .fil11 {fill:#FFCC29;fill-rule:nonzero}
    .fil10 {fill:#FAA841;fill-rule:nonzero}
    .fil13 {fill:#EF4B37;fill-rule:nonzero}
    .fil12 {fill:#00A7E1;fill-rule:nonzero}
    .fil9 {fill:#006CB5;fill-rule:nonzero}
    .fil16 {fill:black;fill-rule:nonzero}
    .fil0 {fill:#E6E6E6;fill-rule:nonzero}
    .fil6 {fill:#FCA311;fill-rule:nonzero}
    .fil7 {fill:#192168;fill-rule:nonzero}
    .fil5 {fill:#D81E05;fill-rule:nonzero}
   ]]>
  </style>
 </defs>
 <g id="Camada_x0020_1">
  <metadata id="CorelCorpID_0Corel-Layer"/>
  <g>
   <path class="fil0" d="M81.2 0.32l-9.33 0 0 -0.32 9.33 0 0 0 0 0.32zm0.95 0.63l-0.32 0 0 0 -0 -0.03 -0 -0.03 -0 -0.03 -0.01 -0.03 -0.01 -0.03 -0.01 -0.03 -0.01 -0.03 -0.01 -0.03 -0.01 -0.03 -0.01 -0.03 -0.02 -0.03 -0.02 -0.03 -0.02 -0.02 -0.02 -0.02 -0.02 -0.02 -0.02 -0.02 -0.02 -0.02 -0.02 -0.02 -0.02 -0.02 -0.02 -0.02 -0.03 -0.02 -0.03 -0.02 -0.03 -0.01 -0.03 -0.01 -0.03 -0.01 -0.03 -0.01 -0.03 -0.01 -0.03 -0.01 -0.03 -0.01 -0.03 -0 -0.03 -0 -0.03 -0 0 -0.32 0.05 0 0.05 0 0.05 0.01 0.05 0.01 0.05 0.01 0.05 0.01 0.04 0.02 0.04 0.02 0.04 0.02 0.04 0.02 0.04 0.02 0.04 0.02 0.04 0.03 0.04 0.03 0.03 0.03 0.03 0.03 0.03 0.03 0.03 0.03 0.03 0.04 0.03 0.04 0.02 0.04 0.02 0.04 0.02 0.04 0.02 0.04 0.02 0.04 0.02 0.04 0.01 0.05 0.01 0.05 0.01 0.05 0.01 0.05 0 0.05 0 0.05 0 0zm-0.32 4.42l0 -4.42 0.32 0 0 4.42 0 0 -0.32 0zm-0.63 0.95l0 -0.32 0 0 0.03 -0 0.03 -0 0.03 -0 0.03 -0.01 0.03 -0.01 0.03 -0.01 0.03 -0.01 0.03 -0.01 0.03 -0.01 0.03 -0.01 0.03 -0.02 0.03 -0.02 0.02 -0.02 0.02 -0.02 0.02 -0.02 0.02 -0.02 0.02 -0.02 0.02 -0.02 0.02 -0.02 0.02 -0.02 0.02 -0.03 0.02 -0.03 0.01 -0.03 0.01 -0.03 0.01 -0.03 0.01 -0.03 0.01 -0.03 0.01 -0.03 0.01 -0.03 0 -0.03 0 -0.03 0 -0.03 0.32 0 -0 0.05 -0 0.05 -0.01 0.05 -0.01 0.05 -0.01 0.05 -0.01 0.05 -0.02 0.04 -0.02 0.04 -0.02 0.04 -0.02 0.04 -0.02 0.04 -0.02 0.04 -0.03 0.04 -0.03 0.04 -0.03 0.03 -0.03 0.03 -0.03 0.03 -0.03 0.03 -0.04 0.03 -0.04 0.03 -0.04 0.02 -0.04 0.02 -0.04 0.02 -0.04 0.02 -0.04 0.02 -0.04 0.02 -0.05 0.01 -0.05 0.01 -0.05 0.01 -0.05 0.01 -0.05 0 -0.05 0 0 0zm-9.33 -0.32l9.33 0 0 0.32 -9.33 0 0 0 0 -0.32zm-0.95 -0.63l0.32 0 0 0 0 0.03 0 0.03 0 0.03 0.01 0.03 0.01 0.03 0.01 0.03 0.01 0.03 0.01 0.03 0.01 0.03 0.01 0.03 0.02 0.03 0.02 0.03 0.02 0.02 0.02 0.02 0.02 0.02 0.02 0.02 0.02 0.02 0.02 0.02 0.02 0.02 0.02 0.02 0.03 0.02 0.03 0.02 0.03 0.01 0.03 0.01 0.03 0.01 0.03 0.01 0.03 0.01 0.03 0.01 0.03 0.01 0.03 0 0.03 0 0.03 0 0 0.32 -0.05 -0 -0.05 -0 -0.05 -0.01 -0.05 -0.01 -0.05 -0.01 -0.05 -0.01 -0.04 -0.02 -0.04 -0.02 -0.04 -0.02 -0.04 -0.02 -0.04 -0.02 -0.04 -0.02 -0.04 -0.03 -0.04 -0.03 -0.03 -0.03 -0.03 -0.03 -0.03 -0.03 -0.03 -0.03 -0.03 -0.04 -0.03 -0.04 -0.02 -0.04 -0.02 -0.04 -0.02 -0.04 -0.02 -0.04 -0.02 -0.04 -0.02 -0.04 -0.01 -0.05 -0.01 -0.05 -0.01 -0.05 -0.01 -0.05 -0 -0.05 -0 -0.05 0 0zm0.32 -4.42l0 4.42 -0.32 0 0 -4.42 0 0 0.32 0zm0.63 -0.95l0 0.32 0 0 -0.03 0 -0.03 0 -0.03 0 -0.03 0.01 -0.03 0.01 -0.03 0.01 -0.03 0.01 -0.03 0.01 -0.03 0.01 -0.03 0.01 -0.03 0.02 -0.03 0.02 -0.02 0.02 -0.02 0.02 -0.02 0.02 -0.02 0.02 -0.02 0.02 -0.02 0.02 -0.02 0.02 -0.02 0.02 -0.02 0.03 -0.02 0.03 -0.01 0.03 -0.01 0.03 -0.01 0.03 -0.01 0.03 -0.01 0.03 -0.01 0.03 -0.01 0.03 -0 0.03 -0 0.03 -0 0.03 -0.32 0 0 -0.05 0 -0.05 0.01 -0.05 0.01 -0.05 0.01 -0.05 0.01 -0.05 0.02 -0.04 0.02 -0.04 0.02 -0.04 0.02 -0.04 0.02 -0.04 0.02 -0.04 0.03 -0.04 0.03 -0.04 0.03 -0.03 0.03 -0.03 0.03 -0.03 0.03 -0.03 0.04 -0.03 0.04 -0.03 0.04 -0.02 0.04 -0.02 0.04 -0.02 0.04 -0.02 0.04 -0.02 0.04 -0.02 0.05 -0.01 0.05 -0.01 0.05 -0.01 0.05 -0.01 0.05 -0 0.05 -0 0 0z"/>
   <path id="_1" class="fil1" d="M71.87 0.16l9.33 0c0.44,0 0.79,0.36 0.79,0.79l0 4.42c0,0.44 -0.36,0.79 -0.79,0.79l-9.33 0c-0.44,0 -0.79,-0.36 -0.79,-0.79l0 -4.42c0,-0.44 0.36,-0.79 0.79,-0.79z"/>
  </g>
  <g id="_1213532216816">
   <path class="fil2" d="M74.56 4.01l-0.49 0.49c-0.19,0.19 -0.5,0.19 -0.69,0l-0.49 -0.49c0.09,-0 0.17,-0.01 0.23,-0.03 0.07,-0.02 0.12,-0.06 0.16,-0.1l0.4 -0.4c0.02,-0.02 0.04,-0.03 0.06,-0.03 0.02,0 0.04,0.01 0.06,0.03l0.4 0.4c0.04,0.04 0.09,0.08 0.16,0.1 0.06,0.02 0.13,0.03 0.2,0.03zm-1.67 -1.49l0.49 -0.49c0.19,-0.19 0.5,-0.19 0.69,0l0.49 0.49c-0.08,0 -0.15,0.01 -0.21,0.03 -0.07,0.02 -0.12,0.06 -0.16,0.1l-0.4 0.4c-0.02,0.02 -0.04,0.03 -0.06,0.03 -0.02,0 -0.04,-0.01 -0.06,-0.03l-0.4 -0.4c-0.04,-0.04 -0.09,-0.08 -0.16,-0.1 -0.06,-0.02 -0.14,-0.03 -0.24,-0.03zm-0.4 0.4l0.23 -0.23c0.18,-0.03 0.29,-0.02 0.37,0.01 0.08,0.03 0.13,0.08 0.18,0.12l0 0c0.29,0.29 0.38,0.36 0.38,0.36l0 0c0.01,0.01 0.03,0.01 0.04,0.02 0.02,0 0.04,0.01 0.05,0.01 0.02,0 0.03,-0 0.05,-0.01 0.02,-0 0.03,-0.01 0.04,-0.02l0 -0c0,0 0.09,-0.07 0.38,-0.36l0 0c0.05,-0.04 0.1,-0.09 0.18,-0.12 0.08,-0.03 0.18,-0.04 0.33,-0.02l0.24 0.24c0.19,0.19 0.19,0.5 0,0.69l-0.24 0.24c-0.15,0.02 -0.25,0.01 -0.33,-0.02 -0.08,-0.03 -0.13,-0.08 -0.18,-0.12l0 0c-0.29,-0.29 -0.38,-0.36 -0.38,-0.36l0 -0c-0.01,-0.01 -0.03,-0.01 -0.04,-0.02 -0.02,-0 -0.03,-0.01 -0.05,-0.01 -0.02,0 -0.03,0 -0.05,0.01 -0.02,0 -0.03,0.01 -0.04,0.02l0 0c-0,0 -0.09,0.07 -0.38,0.36l0 0c-0.05,0.04 -0.1,0.09 -0.18,0.12 -0.08,0.03 -0.2,0.04 -0.37,0.01l-0.23 -0.23c-0.19,-0.19 -0.19,-0.5 0,-0.69z"/>
   <g>
    <path class="fil3" d="M78.26 4.19c-0.07,0.03 -0.16,0.05 -0.27,0.04 -0.2,-0.01 -0.34,-0.11 -0.43,-0.25 -0.04,0.03 -0.08,0.06 -0.12,0.08 -0.31,0.19 -0.72,0.17 -1.09,0.16 -0.01,0.21 -0.03,0.38 -0.06,0.46l-0.09 0.21 -0.22 0.07c-0.4,0.12 -0.72,-0.15 -0.72,-0.56l0 -1.51c0,-0.41 0.08,-0.73 0.4,-1 0.34,-0.28 0.64,-0.26 1.04,-0.26 0.22,0 0.42,0.02 0.6,0.09 0.13,-0.06 0.29,-0.09 0.44,-0.09 0.17,0 0.3,0.03 0.41,0.08 0.09,-0.05 0.21,-0.08 0.33,-0.08 0.1,0 0.2,-0 0.3,0.01 0.25,0.04 0.4,0.14 0.58,0.32 0.06,0.06 0.12,0.13 0.18,0.19 0.17,-0.18 0.36,-0.37 0.58,-0.46 0.13,-0.05 0.25,-0.06 0.39,-0.06 0.39,-0.01 0.72,0.2 0.65,0.65l-0.03 0.22 -0.19 0.12c-0.2,0.13 -0.29,0.08 -0.45,0.09 -0.01,0.02 -0.06,0.08 -0.1,0.12 -0.03,0.03 -0.06,0.06 -0.09,0.1 0.07,0.07 0.14,0.14 0.21,0.2 0.19,0.03 0.35,-0.03 0.54,0.19 0.34,0.41 -0,0.88 -0.47,0.89 -0.11,0 -0.27,-0.01 -0.37,-0.04 -0.23,-0.06 -0.35,-0.17 -0.5,-0.33 -0.05,-0.05 -0.1,-0.1 -0.15,-0.16 -0.17,0.18 -0.35,0.37 -0.58,0.46 -0.19,0.08 -0.52,0.09 -0.74,0.03zm0.31 -1.04c0.02,0 0.03,0 0.04,0.01 0.08,-0.05 0.15,-0.13 0.22,-0.21 -0.08,-0.09 -0.16,-0.18 -0.22,-0.23 -0.01,0 -0.02,0 -0.03,0 0,0.05 0,0.1 0,0.15l0 0.28zm-2.21 -0.01c0.07,0 0.13,0.01 0.2,0.01 0.06,0 0.27,0.02 0.34,-0.01 0.02,-0.05 0,-0.3 0,-0.37 0,-0.01 -0,-0.03 -0,-0.03 -0.1,-0.02 -0.44,-0.02 -0.53,-0 -0.01,0.01 -0.01,0.04 -0.01,0.06 0,0.08 0,0.2 0.01,0.35z"/>
   </g>
   <g>
    <path class="fil4" d="M75.85 4.5c0.04,-0.09 0.01,-1.48 0.01,-1.71 0,-0.26 0.14,-0.45 0.34,-0.52 0.13,-0.04 0.67,-0.05 0.81,-0.01 0.2,0.06 0.37,0.24 0.37,0.49 0,0.3 0.03,0.54 -0.14,0.71 -0.2,0.2 -0.36,0.16 -0.69,0.16 -0.08,0 -0.38,-0.02 -0.42,0.01 -0.02,0.02 -0.02,0.05 -0.01,0.07 0.02,0.03 0.05,0.02 0.09,0.02 0.32,0 0.77,0.04 0.98,-0.09 0.17,-0.1 0.3,-0.28 0.3,-0.56 -0,-0.34 0.04,-0.49 -0.14,-0.73 -0.16,-0.21 -0.4,-0.22 -0.64,-0.22 -0.31,0 -0.52,-0.04 -0.73,0.14 -0.18,0.15 -0.23,0.31 -0.23,0.63l-0 1.51c0,0.08 0.01,0.11 0.09,0.09z"/>
    <path class="fil4" d="M79.85 2.73c0.08,-0.08 0.15,-0.15 0.23,-0.23 0.06,-0.07 0.15,-0.17 0.24,-0.22 0.14,-0.07 0.32,-0.02 0.39,-0.06 0.02,-0.12 -0.08,-0.09 -0.17,-0.09 -0.08,0 -0.14,0 -0.21,0.03 -0.16,0.06 -0.38,0.32 -0.52,0.46 -0.1,0.1 -0.18,0.22 -0.28,0.18 -0.05,-0.02 -0.42,-0.41 -0.49,-0.48 -0.08,-0.08 -0.15,-0.16 -0.31,-0.18 -0.07,-0.01 -0.16,-0.01 -0.23,-0.01 -0.09,-0 -0.14,0.02 -0.09,0.1 0.15,0.03 0.26,-0.03 0.42,0.05 0.08,0.04 0.39,0.37 0.47,0.45 0.06,0.06 0.15,0.18 0.28,0.18 0.13,0 0.22,-0.13 0.28,-0.19z"/>
    <path class="fil4" d="M78.4 3.72c0.08,0.04 0.33,0.02 0.43,-0.01 0.16,-0.06 0.38,-0.32 0.5,-0.44 0.1,-0.1 0.18,-0.21 0.27,-0.2 0.07,0.01 0.42,0.39 0.49,0.46 0.07,0.08 0.14,0.16 0.28,0.2 0.05,0.01 0.44,0.06 0.33,-0.07 -0.03,-0.04 -0.28,0 -0.41,-0.07 -0.05,-0.03 -0.41,-0.4 -0.48,-0.47 -0.07,-0.07 -0.15,-0.19 -0.3,-0.15 -0.18,0.05 -0.53,0.6 -0.77,0.66 -0.2,0.05 -0.38,-0.06 -0.35,0.1z"/>
    <path class="fil4" d="M77.54 2.23c0.24,0.04 0.43,-0.07 0.43,0.25l0 1.16c0,0.05 -0,0.1 0.05,0.1 0.07,0 0.05,-0.07 0.05,-0.15l0 -0.73c0,-0.34 0.08,-0.74 -0.32,-0.74 -0.14,0 -0.28,-0.02 -0.22,0.1z"/>
   </g>
   <rect class="fil2" transform="matrix(0.057196 -0.0571961 0.0457603 0.0457604 77.6284 1.8482)" width="3.2" height="4" rx="0.4" ry="0.4"/>
  </g>
  <g>
   <path class="fil0" d="M10.29 0.32l-9.33 0 0 -0.32 9.33 0 0 0 0 0.32zm0.95 0.63l-0.32 0 0 0 -0 -0.03 -0 -0.03 -0 -0.03 -0.01 -0.03 -0.01 -0.03 -0.01 -0.03 -0.01 -0.03 -0.01 -0.03 -0.01 -0.03 -0.01 -0.03 -0.02 -0.03 -0.02 -0.03 -0.02 -0.02 -0.02 -0.02 -0.02 -0.02 -0.02 -0.02 -0.02 -0.02 -0.02 -0.02 -0.02 -0.02 -0.02 -0.02 -0.03 -0.02 -0.03 -0.02 -0.03 -0.01 -0.03 -0.01 -0.03 -0.01 -0.03 -0.01 -0.03 -0.01 -0.03 -0.01 -0.03 -0.01 -0.03 -0 -0.03 -0 -0.03 -0 0 -0.32 0.05 0 0.05 0 0.05 0.01 0.05 0.01 0.05 0.01 0.05 0.01 0.04 0.02 0.04 0.02 0.04 0.02 0.04 0.02 0.04 0.02 0.04 0.02 0.04 0.03 0.04 0.03 0.03 0.03 0.03 0.03 0.03 0.03 0.03 0.03 0.03 0.04 0.03 0.04 0.03 0.04 0.02 0.04 0.02 0.04 0.02 0.04 0.02 0.04 0.02 0.04 0.01 0.05 0.01 0.05 0.01 0.05 0.01 0.05 0 0.05 0 0.05 0 0zm-0.32 4.42l0 -4.42 0.32 0 0 4.42 0 0 -0.32 0zm-0.63 0.95l0 -0.32 0 0 0.03 -0 0.03 -0 0.03 -0 0.03 -0.01 0.03 -0.01 0.03 -0.01 0.03 -0.01 0.03 -0.01 0.03 -0.01 0.03 -0.01 0.03 -0.02 0.03 -0.02 0.02 -0.02 0.02 -0.02 0.02 -0.02 0.02 -0.02 0.02 -0.02 0.02 -0.02 0.02 -0.02 0.02 -0.02 0.02 -0.03 0.02 -0.03 0.01 -0.03 0.01 -0.03 0.01 -0.03 0.01 -0.03 0.01 -0.03 0.01 -0.03 0.01 -0.03 0 -0.03 0 -0.03 0 -0.03 0.32 0 -0 0.05 -0 0.05 -0.01 0.05 -0.01 0.05 -0.01 0.05 -0.01 0.05 -0.02 0.04 -0.02 0.04 -0.02 0.04 -0.02 0.04 -0.02 0.04 -0.03 0.04 -0.03 0.04 -0.03 0.04 -0.03 0.03 -0.03 0.03 -0.03 0.03 -0.03 0.03 -0.04 0.03 -0.04 0.03 -0.04 0.02 -0.04 0.02 -0.04 0.02 -0.04 0.02 -0.04 0.02 -0.04 0.02 -0.05 0.01 -0.05 0.01 -0.05 0.01 -0.05 0.01 -0.05 0 -0.05 0 0 0zm-9.33 -0.32l9.33 0 0 0.32 -9.33 0 0 0 0 -0.32zm-0.95 -0.63l0.32 0 0 0 0 0.03 0 0.03 0 0.03 0.01 0.03 0.01 0.03 0.01 0.03 0.01 0.03 0.01 0.03 0.01 0.03 0.01 0.03 0.02 0.03 0.02 0.03 0.02 0.02 0.02 0.02 0.02 0.02 0.02 0.02 0.02 0.02 0.02 0.02 0.02 0.02 0.02 0.02 0.03 0.02 0.03 0.02 0.03 0.01 0.03 0.01 0.03 0.01 0.03 0.01 0.03 0.01 0.03 0.01 0.03 0.01 0.03 0 0.03 0 0.03 0 0 0.32 -0.05 -0 -0.05 -0 -0.05 -0.01 -0.05 -0.01 -0.05 -0.01 -0.05 -0.01 -0.04 -0.02 -0.04 -0.02 -0.04 -0.02 -0.04 -0.02 -0.04 -0.02 -0.04 -0.02 -0.04 -0.03 -0.04 -0.03 -0.03 -0.03 -0.03 -0.03 -0.03 -0.03 -0.03 -0.03 -0.03 -0.04 -0.03 -0.04 -0.02 -0.04 -0.02 -0.04 -0.02 -0.04 -0.02 -0.04 -0.02 -0.04 -0.02 -0.04 -0.01 -0.05 -0.01 -0.05 -0.01 -0.05 -0.01 -0.05 -0 -0.05 -0 -0.05 0 0zm0.32 -4.42l0 4.42 -0.32 0 0 -4.42 0 0 0.32 0zm0.63 -0.95l0 0.32 0 0 -0.03 0 -0.03 0 -0.03 0 -0.03 0.01 -0.03 0.01 -0.03 0.01 -0.03 0.01 -0.03 0.01 -0.03 0.01 -0.03 0.01 -0.03 0.02 -0.03 0.02 -0.02 0.02 -0.02 0.02 -0.02 0.02 -0.02 0.02 -0.02 0.02 -0.02 0.02 -0.02 0.02 -0.02 0.02 -0.02 0.03 -0.02 0.03 -0.01 0.03 -0.01 0.03 -0.01 0.03 -0.01 0.03 -0.01 0.03 -0.01 0.03 -0.01 0.03 -0 0.03 -0 0.03 -0 0.03 -0.32 0 0 -0.05 0 -0.05 0.01 -0.05 0.01 -0.05 0.01 -0.05 0.01 -0.05 0.02 -0.04 0.02 -0.04 0.02 -0.04 0.02 -0.04 0.02 -0.04 0.02 -0.04 0.03 -0.04 0.03 -0.04 0.03 -0.03 0.03 -0.03 0.03 -0.03 0.03 -0.03 0.04 -0.03 0.04 -0.03 0.04 -0.02 0.04 -0.02 0.04 -0.02 0.04 -0.02 0.04 -0.02 0.04 -0.02 0.05 -0.01 0.05 -0.01 0.05 -0.01 0.05 -0.01 0.05 -0 0.05 -0 0 0z"/>
   <path id="_1_0" class="fil1" d="M0.95 0.16l9.33 0c0.44,0 0.79,0.36 0.79,0.79l0 4.42c0,0.44 -0.36,0.79 -0.79,0.79l-9.33 0c-0.44,0 -0.79,-0.36 -0.79,-0.79l0 -4.42c0,-0.44 0.36,-0.79 0.79,-0.79z"/>
  </g>
  <g id="_1213532218784">
   <path class="fil5" d="M6.21 3.16c0,0.99 -0.8,1.79 -1.79,1.79 -0.99,0 -1.79,-0.8 -1.79,-1.79 0,-0.99 0.8,-1.79 1.79,-1.79 0.99,0 1.79,0.8 1.79,1.79z"/>
   <path class="fil6" d="M6.82 1.38c-0.46,0 -0.88,0.17 -1.2,0.46 -0.06,0.06 -0.12,0.12 -0.18,0.19l0.36 0c0.05,0.06 0.09,0.12 0.14,0.19l-0.63 0c-0.04,0.06 -0.07,0.12 -0.1,0.19l0.84 0c0.03,0.06 0.05,0.12 0.08,0.19l-0.99 0c-0.02,0.06 -0.04,0.12 -0.05,0.19l1.09 0c0.03,0.12 0.04,0.25 0.04,0.38 0,0.2 -0.03,0.39 -0.09,0.57l-0.99 0c0.02,0.06 0.05,0.13 0.08,0.19l0.84 0c-0.03,0.07 -0.06,0.13 -0.1,0.19l-0.63 0c0.04,0.07 0.09,0.13 0.14,0.19l0.36 0c-0.06,0.07 -0.12,0.13 -0.18,0.19 0.32,0.29 0.74,0.46 1.2,0.46 0.99,0 1.79,-0.8 1.79,-1.79 0,-0.99 -0.8,-1.79 -1.79,-1.79z"/>
   <path class="fil6" d="M8.37 4.16c0,-0.03 0.03,-0.06 0.06,-0.06 0.03,0 0.06,0.03 0.06,0.06 0,0.03 -0.03,0.06 -0.06,0.06 -0.03,0 -0.06,-0.03 -0.06,-0.06zm0.06 0.04c0.02,0 0.04,-0.02 0.04,-0.04 0,-0.02 -0.02,-0.04 -0.04,-0.04 -0.02,0 -0.04,0.02 -0.04,0.04 0,0.02 0.02,0.04 0.04,0.04zm-0.01 -0.02l-0.01 0 0 -0.05 0.02 0c0,0 0.01,0 0.01,0 0,0 0.01,0.01 0.01,0.01 0,0.01 -0,0.01 -0.01,0.01l0.01 0.02 -0.01 0 -0.01 -0.02 -0.01 0 0 0.02zm0 -0.03l0.01 0c0,0 0.01,0 0.01,-0 0,-0 0,-0 0,-0.01 0,-0 -0,-0 -0,-0.01 -0,-0 -0.01,-0 -0.01,-0l-0.01 0 0 0.01z"/>
   <path class="fil7" d="M4 3.36c-0.02,-0 -0.03,-0 -0.04,-0 -0.11,0 -0.17,0.04 -0.17,0.11 0,0.05 0.03,0.07 0.07,0.07 0.08,0 0.14,-0.08 0.14,-0.18zm0.14 0.33c-0.03,0 -0.16,0 -0.16,0l0 -0.08c-0.05,0.06 -0.11,0.09 -0.2,0.09 -0.11,0 -0.18,-0.08 -0.18,-0.2 0,-0.18 0.13,-0.28 0.34,-0.28 0.02,0 0.05,0 0.08,0.01 0.01,-0.02 0.01,-0.03 0.01,-0.05 0,-0.05 -0.03,-0.07 -0.12,-0.07 -0.09,-0 -0.17,0.02 -0.21,0.03 0,-0.01 0.03,-0.17 0.03,-0.17 0.1,-0.03 0.16,-0.04 0.23,-0.04 0.17,0 0.25,0.07 0.25,0.22 0,0.04 -0.01,0.08 -0.02,0.15 -0.02,0.11 -0.05,0.34 -0.06,0.39z"/>
   <polygon class="fil7" points="3.53,3.68 3.33,3.68 3.44,2.99 3.2,3.68 3.06,3.68 3.05,2.99 2.93,3.68 2.75,3.68 2.9,2.78 3.18,2.78 3.2,3.29 3.37,2.78 3.68,2.78 "/>
   <path class="fil7" d="M7.06 3.36c-0.02,-0 -0.03,-0 -0.04,-0 -0.11,0 -0.17,0.04 -0.17,0.11 0,0.05 0.03,0.07 0.07,0.07 0.08,0 0.14,-0.08 0.14,-0.18zm0.14 0.33c-0.03,0 -0.16,0 -0.16,0l0 -0.08c-0.05,0.06 -0.11,0.09 -0.2,0.09 -0.11,0 -0.18,-0.08 -0.18,-0.2 0,-0.18 0.13,-0.28 0.34,-0.28 0.02,0 0.05,0 0.08,0.01 0.01,-0.02 0.01,-0.03 0.01,-0.05 0,-0.05 -0.03,-0.07 -0.12,-0.07 -0.09,-0 -0.17,0.02 -0.21,0.03 0,-0.01 0.03,-0.17 0.03,-0.17 0.1,-0.03 0.16,-0.04 0.23,-0.04 0.17,0 0.25,0.07 0.25,0.22 0,0.04 -0.01,0.08 -0.02,0.15 -0.02,0.11 -0.05,0.34 -0.06,0.39z"/>
   <path class="fil7" d="M5.01 3.67c-0.05,0.02 -0.09,0.02 -0.14,0.02 -0.1,0 -0.15,-0.06 -0.15,-0.16 -0,-0.03 0.01,-0.12 0.03,-0.2 0.01,-0.07 0.08,-0.5 0.08,-0.5l0.19 0 -0.02 0.11 0.12 0 -0.03 0.18 -0.12 0c-0.02,0.14 -0.05,0.31 -0.05,0.34 0,0.04 0.02,0.05 0.07,0.05 0.02,0 0.04,-0 0.05,-0.01l-0.03 0.16z"/>
   <path class="fil7" d="M5.6 3.67c-0.07,0.02 -0.13,0.03 -0.2,0.03 -0.22,-0 -0.33,-0.11 -0.33,-0.33 0,-0.25 0.14,-0.44 0.34,-0.44 0.16,0 0.26,0.1 0.26,0.27 0,0.05 -0.01,0.11 -0.02,0.18l-0.38 0c-0.01,0.11 0.06,0.15 0.17,0.15 0.07,0 0.13,-0.01 0.2,-0.05l-0.03 0.18zm-0.11 -0.44c0,-0.02 0.02,-0.13 -0.09,-0.13 -0.06,0 -0.11,0.05 -0.12,0.13l0.21 0z"/>
   <path class="fil7" d="M4.26 3.18c0,0.09 0.05,0.16 0.15,0.21 0.08,0.04 0.09,0.05 0.09,0.08 0,0.05 -0.03,0.07 -0.11,0.07 -0.06,0 -0.11,-0.01 -0.17,-0.03 0,0 -0.03,0.16 -0.03,0.17 0.04,0.01 0.08,0.02 0.2,0.02 0.2,0 0.3,-0.08 0.3,-0.25 0,-0.1 -0.04,-0.16 -0.14,-0.21 -0.08,-0.04 -0.09,-0.05 -0.09,-0.08 0,-0.04 0.03,-0.06 0.09,-0.06 0.04,0 0.09,0 0.14,0.01l0.03 -0.17c-0.05,-0.01 -0.13,-0.01 -0.17,-0.01 -0.22,0 -0.29,0.11 -0.29,0.25z"/>
   <path class="fil7" d="M6.54 2.95c0.05,0 0.1,0.01 0.17,0.05l0.03 -0.2c-0.03,-0.01 -0.13,-0.08 -0.21,-0.08 -0.13,0 -0.24,0.06 -0.32,0.17 -0.11,-0.04 -0.16,0.04 -0.22,0.11l-0.05 0.01c0,-0.02 0.01,-0.05 0.01,-0.07l-0.18 0c-0.02,0.23 -0.07,0.46 -0.1,0.69l-0.01 0.05 0.19 0c0.03,-0.21 0.05,-0.34 0.06,-0.44l0.07 -0.04c0.01,-0.04 0.05,-0.05 0.11,-0.05 -0.01,0.05 -0.01,0.1 -0.01,0.15 0,0.24 0.13,0.39 0.34,0.39 0.05,0 0.1,-0.01 0.17,-0.03l0.03 -0.21c-0.06,0.03 -0.12,0.05 -0.16,0.05 -0.11,0 -0.18,-0.08 -0.18,-0.22 0,-0.2 0.1,-0.34 0.25,-0.34z"/>
   <path class="fil7" d="M8.18 2.78l-0.04 0.26c-0.05,-0.07 -0.11,-0.12 -0.19,-0.12 -0.1,0 -0.19,0.07 -0.24,0.18 -0.08,-0.02 -0.17,-0.05 -0.17,-0.05l0 0c0.01,-0.06 0.01,-0.1 0.01,-0.11l-0.18 0c-0.02,0.23 -0.07,0.46 -0.1,0.69l-0.01 0.05 0.19 0c0.03,-0.17 0.05,-0.31 0.06,-0.42 0.07,-0.06 0.1,-0.11 0.17,-0.11 -0.03,0.07 -0.05,0.15 -0.05,0.24 0,0.18 0.09,0.31 0.23,0.31 0.07,0 0.13,-0.02 0.18,-0.08l-0.01 0.07 0.18 0 0.15 -0.91 -0.19 0zm-0.24 0.74c-0.07,0 -0.1,-0.05 -0.1,-0.14 0,-0.14 0.06,-0.25 0.15,-0.25 0.07,0 0.1,0.05 0.1,0.14 0,0.15 -0.06,0.25 -0.15,0.25z"/>
   <polygon class="fil8" points="3.58,3.63 3.39,3.63 3.5,2.93 3.25,3.63 3.12,3.63 3.1,2.94 2.99,3.63 2.8,3.63 2.96,2.73 3.24,2.73 3.24,3.29 3.43,2.73 3.73,2.73 "/>
   <path class="fil8" d="M4.06 3.3c-0.02,-0 -0.03,-0 -0.04,-0 -0.11,0 -0.17,0.04 -0.17,0.11 0,0.05 0.03,0.07 0.07,0.07 0.08,0 0.14,-0.08 0.14,-0.18zm0.14 0.33c-0.03,0 -0.16,0 -0.16,0l0 -0.08c-0.05,0.06 -0.11,0.09 -0.2,0.09 -0.11,0 -0.18,-0.08 -0.18,-0.2 0,-0.18 0.13,-0.28 0.34,-0.28 0.02,0 0.05,0 0.08,0.01 0.01,-0.02 0.01,-0.03 0.01,-0.05 0,-0.05 -0.03,-0.07 -0.12,-0.07 -0.09,-0 -0.17,0.02 -0.21,0.03 0,-0.01 0.03,-0.17 0.03,-0.17 0.1,-0.03 0.16,-0.04 0.23,-0.04 0.17,0 0.25,0.07 0.25,0.22 0,0.04 -0.01,0.08 -0.02,0.15 -0.02,0.11 -0.05,0.34 -0.06,0.39z"/>
   <path class="fil8" d="M6.8 2.75l-0.03 0.2c-0.07,-0.03 -0.12,-0.05 -0.17,-0.05 -0.14,0 -0.25,0.14 -0.25,0.34 0,0.14 0.07,0.22 0.18,0.22 0.05,0 0.1,-0.01 0.16,-0.05l-0.03 0.21c-0.07,0.02 -0.12,0.03 -0.17,0.03 -0.21,0 -0.34,-0.15 -0.34,-0.39 0,-0.32 0.18,-0.55 0.44,-0.55 0.08,0 0.18,0.04 0.21,0.05z"/>
   <path class="fil8" d="M7.11 3.3c-0.02,-0 -0.03,-0 -0.04,-0 -0.11,0 -0.17,0.04 -0.17,0.11 0,0.05 0.03,0.07 0.07,0.07 0.08,0 0.14,-0.08 0.14,-0.18zm0.14 0.33c-0.03,0 -0.16,0 -0.16,0l0 -0.08c-0.05,0.06 -0.11,0.09 -0.2,0.09 -0.11,0 -0.18,-0.08 -0.18,-0.2 0,-0.18 0.13,-0.28 0.34,-0.28 0.02,0 0.05,0 0.08,0.01 0.01,-0.02 0.01,-0.03 0.01,-0.05 0,-0.05 -0.03,-0.07 -0.12,-0.07 -0.09,-0 -0.17,0.02 -0.21,0.03 0,-0.01 0.03,-0.17 0.03,-0.17 0.1,-0.03 0.16,-0.04 0.23,-0.04 0.17,0 0.25,0.07 0.25,0.22 0,0.04 -0.01,0.08 -0.02,0.15 -0.02,0.11 -0.05,0.34 -0.06,0.39z"/>
   <path class="fil8" d="M5.06 3.62c-0.05,0.02 -0.09,0.02 -0.14,0.02 -0.1,0 -0.15,-0.06 -0.15,-0.16 -0,-0.03 0.01,-0.12 0.03,-0.2 0.01,-0.07 0.08,-0.5 0.08,-0.5l0.19 0 -0.02 0.11 0.1 0 -0.03 0.18 -0.1 0c-0.02,0.14 -0.05,0.31 -0.05,0.34 0,0.04 0.02,0.05 0.07,0.05 0.02,0 0.04,-0 0.05,-0.01l-0.03 0.16z"/>
   <path class="fil8" d="M5.65 3.61c-0.07,0.02 -0.13,0.03 -0.2,0.03 -0.22,0 -0.33,-0.11 -0.33,-0.33 0,-0.25 0.14,-0.44 0.34,-0.44 0.16,0 0.26,0.1 0.26,0.27 0,0.05 -0.01,0.11 -0.02,0.18l-0.38 0c-0.01,0.11 0.06,0.15 0.17,0.15 0.07,0 0.13,-0.01 0.2,-0.05l-0.03 0.18zm-0.11 -0.44c0,-0.02 0.02,-0.13 -0.09,-0.13 -0.06,0 -0.11,0.05 -0.12,0.13l0.21 0z"/>
   <path class="fil8" d="M4.32 3.13c0,0.09 0.05,0.16 0.15,0.21 0.08,0.04 0.09,0.05 0.09,0.08 0,0.05 -0.03,0.07 -0.11,0.07 -0.06,0 -0.11,-0.01 -0.17,-0.03 0,0 -0.03,0.16 -0.03,0.17 0.04,0.01 0.08,0.02 0.2,0.02 0.2,0 0.3,-0.08 0.3,-0.25 0,-0.1 -0.04,-0.16 -0.14,-0.21 -0.08,-0.04 -0.09,-0.05 -0.09,-0.08 0,-0.04 0.03,-0.06 0.09,-0.06 0.04,0 0.09,0 0.14,0.01l0.03 -0.17c-0.05,-0.01 -0.13,-0.01 -0.17,-0.01 -0.22,0 -0.29,0.11 -0.29,0.25z"/>
   <path class="fil8" d="M8.28 3.63l-0.18 0 0.01 -0.07c-0.05,0.06 -0.11,0.08 -0.18,0.08 -0.14,0 -0.23,-0.12 -0.23,-0.31 0,-0.24 0.14,-0.45 0.32,-0.45 0.08,0 0.13,0.03 0.19,0.1l0.04 -0.26 0.19 0 -0.15 0.91zm-0.29 -0.17c0.09,0 0.15,-0.1 0.15,-0.25 0,-0.09 -0.04,-0.14 -0.1,-0.14 -0.09,0 -0.15,0.1 -0.15,0.25 0,0.1 0.03,0.14 0.1,0.14z"/>
   <path class="fil8" d="M7.43 2.89c-0.02,0.23 -0.07,0.46 -0.1,0.69l-0.01 0.05 0.19 0c0.07,-0.45 0.09,-0.54 0.2,-0.53 0.02,-0.09 0.05,-0.17 0.07,-0.21 -0.08,-0.02 -0.13,0.03 -0.19,0.12 0,-0.04 0.01,-0.07 0.01,-0.11l-0.18 0z"/>
   <path class="fil8" d="M5.83 2.89c-0.02,0.23 -0.07,0.46 -0.1,0.69l-0.01 0.05 0.19 0c0.07,-0.45 0.09,-0.54 0.19,-0.53 0.02,-0.09 0.05,-0.17 0.07,-0.21 -0.08,-0.02 -0.13,0.03 -0.19,0.12 0,-0.04 0.01,-0.07 0.01,-0.11l-0.18 0z"/>
   <path class="fil8" d="M8.37 3.57c0,-0.03 0.03,-0.06 0.06,-0.06 0.03,0 0.06,0.03 0.06,0.06 0,0.03 -0.03,0.06 -0.06,0.06 -0.03,0 -0.06,-0.03 -0.06,-0.06zm0.06 0.04c0.02,0 0.04,-0.02 0.04,-0.04 0,-0.02 -0.02,-0.04 -0.04,-0.04 -0.02,0 -0.04,0.02 -0.04,0.04 0,0.02 0.02,0.04 0.04,0.04zm-0.01 -0.02l-0.01 0 0 -0.05 0.02 0c0,0 0.01,0 0.01,0 0,0 0.01,0.01 0.01,0.01 0,0.01 -0,0.01 -0.01,0.01l0.01 0.02 -0.01 0 -0.01 -0.02 -0.01 0 0 0.02zm0 -0.03l0.01 0c0,0 0.01,0 0.01,-0 0,-0 0,-0 0,-0.01 0,-0 -0,-0 -0,-0.01 -0,-0 -0.01,-0 -0.01,-0l-0.01 0 0 0.01z"/>
  </g>
  <g>
   <path class="fil0" d="M22.14 0.32l-9.33 0 0 -0.32 9.33 0 0 0 0 0.32zm0.95 0.63l-0.32 0 0 0 -0 -0.03 -0 -0.03 -0 -0.03 -0.01 -0.03 -0.01 -0.03 -0.01 -0.03 -0.01 -0.03 -0.01 -0.03 -0.01 -0.03 -0.01 -0.03 -0.02 -0.03 -0.02 -0.03 -0.02 -0.02 -0.02 -0.02 -0.02 -0.02 -0.02 -0.02 -0.02 -0.02 -0.02 -0.02 -0.02 -0.02 -0.02 -0.02 -0.03 -0.02 -0.03 -0.02 -0.03 -0.01 -0.03 -0.01 -0.03 -0.01 -0.03 -0.01 -0.03 -0.01 -0.03 -0.01 -0.03 -0.01 -0.03 -0 -0.03 -0 -0.03 -0 0 -0.32 0.05 0 0.05 0 0.05 0.01 0.05 0.01 0.05 0.01 0.05 0.01 0.04 0.02 0.04 0.02 0.04 0.02 0.04 0.02 0.04 0.02 0.04 0.02 0.04 0.03 0.04 0.03 0.03 0.03 0.03 0.03 0.03 0.03 0.03 0.03 0.03 0.04 0.03 0.04 0.02 0.04 0.02 0.04 0.02 0.04 0.02 0.04 0.02 0.04 0.02 0.04 0.01 0.05 0.01 0.05 0.01 0.05 0.01 0.05 0 0.05 0 0.05 0 0zm-0.32 4.42l0 -4.42 0.32 0 0 4.42 0 0 -0.32 0zm-0.63 0.95l0 -0.32 0 0 0.03 -0 0.03 -0 0.03 -0 0.03 -0.01 0.03 -0.01 0.03 -0.01 0.03 -0.01 0.03 -0.01 0.03 -0.01 0.03 -0.01 0.03 -0.02 0.03 -0.02 0.02 -0.02 0.02 -0.02 0.02 -0.02 0.02 -0.02 0.02 -0.02 0.02 -0.02 0.02 -0.02 0.02 -0.02 0.02 -0.03 0.02 -0.03 0.01 -0.03 0.01 -0.03 0.01 -0.03 0.01 -0.03 0.01 -0.03 0.01 -0.03 0.01 -0.03 0 -0.03 0 -0.03 0 -0.03 0.32 0 -0 0.05 -0 0.05 -0.01 0.05 -0.01 0.05 -0.01 0.05 -0.01 0.05 -0.02 0.04 -0.02 0.04 -0.02 0.04 -0.02 0.04 -0.02 0.04 -0.02 0.04 -0.03 0.04 -0.03 0.04 -0.03 0.03 -0.03 0.03 -0.03 0.03 -0.03 0.03 -0.04 0.03 -0.04 0.03 -0.04 0.02 -0.04 0.02 -0.04 0.02 -0.04 0.02 -0.04 0.02 -0.04 0.02 -0.05 0.01 -0.05 0.01 -0.05 0.01 -0.05 0.01 -0.05 0 -0.05 0 0 0zm-9.33 -0.32l9.33 0 0 0.32 -9.33 0 0 0 0 -0.32zm-0.95 -0.63l0.32 0 0 0 0 0.03 0 0.03 0 0.03 0.01 0.03 0.01 0.03 0.01 0.03 0.01 0.03 0.01 0.03 0.01 0.03 0.01 0.03 0.02 0.03 0.02 0.03 0.02 0.02 0.02 0.02 0.02 0.02 0.02 0.02 0.02 0.02 0.02 0.02 0.02 0.02 0.02 0.02 0.03 0.02 0.03 0.02 0.03 0.01 0.03 0.01 0.03 0.01 0.03 0.01 0.03 0.01 0.03 0.01 0.03 0.01 0.03 0 0.03 0 0.03 0 0 0.32 -0.05 -0 -0.05 -0 -0.05 -0.01 -0.05 -0.01 -0.05 -0.01 -0.05 -0.01 -0.04 -0.02 -0.04 -0.02 -0.04 -0.02 -0.04 -0.02 -0.04 -0.02 -0.04 -0.02 -0.04 -0.03 -0.04 -0.03 -0.03 -0.03 -0.03 -0.03 -0.03 -0.03 -0.03 -0.03 -0.03 -0.04 -0.03 -0.04 -0.02 -0.04 -0.02 -0.04 -0.02 -0.04 -0.02 -0.04 -0.02 -0.04 -0.02 -0.04 -0.01 -0.05 -0.01 -0.05 -0.01 -0.05 -0.01 -0.05 -0 -0.05 -0 -0.05 0 0zm0.32 -4.42l0 4.42 -0.32 0 0 -4.42 0 0 0.32 0zm0.63 -0.95l0 0.32 0 0 -0.03 0 -0.03 0 -0.03 0 -0.03 0.01 -0.03 0.01 -0.03 0.01 -0.03 0.01 -0.03 0.01 -0.03 0.01 -0.03 0.01 -0.03 0.02 -0.03 0.02 -0.02 0.02 -0.02 0.02 -0.02 0.02 -0.02 0.02 -0.02 0.02 -0.02 0.02 -0.02 0.02 -0.02 0.02 -0.02 0.03 -0.02 0.03 -0.01 0.03 -0.01 0.03 -0.01 0.03 -0.01 0.03 -0.01 0.03 -0.01 0.03 -0.01 0.03 -0 0.03 -0 0.03 -0 0.03 -0.32 0 0 -0.05 0 -0.05 0.01 -0.05 0.01 -0.05 0.01 -0.05 0.01 -0.05 0.02 -0.04 0.02 -0.04 0.02 -0.04 0.02 -0.04 0.02 -0.04 0.02 -0.04 0.03 -0.04 0.03 -0.04 0.03 -0.03 0.03 -0.03 0.03 -0.03 0.03 -0.03 0.04 -0.03 0.04 -0.03 0.04 -0.02 0.04 -0.02 0.04 -0.02 0.04 -0.02 0.04 -0.02 0.04 -0.02 0.05 -0.01 0.05 -0.01 0.05 -0.01 0.05 -0.01 0.05 -0 0.05 -0 0 0z"/>
   <path id="_1_1" class="fil1" d="M12.8 0.16l9.33 0c0.44,0 0.79,0.36 0.79,0.79l0 4.42c0,0.44 -0.36,0.79 -0.79,0.79l-9.33 0c-0.44,0 -0.79,-0.36 -0.79,-0.79l0 -4.42c0,-0.44 0.36,-0.79 0.79,-0.79z"/>
  </g>
  <g id="_1216188950544">
   <polygon class="fil9" points="17.28,4.34 16.66,4.34 17.05,1.98 17.66,1.98 "/>
   <path class="fil9" d="M16.15 1.98l-0.59 1.62 -0.07 -0.35 0 0 -0.21 -1.06c0,0 -0.03,-0.21 -0.29,-0.21l-0.97 0 -0.01 0.04c0,0 0.3,0.06 0.64,0.27l0.53 2.05 0.64 0 0.98 -2.36 -0.66 0z"/>
   <path class="fil9" d="M20.31 3.51l0.32 -0.88 0.18 0.88 -0.51 0zm0.68 0.84l0.56 0 -0.49 -2.36 -0.49 0c-0.23,0 -0.28,0.18 -0.28,0.18l-0.92 2.19 0.64 0 0.13 -0.35 0.78 0 0.07 0.35z"/>
   <path class="fil9" d="M19.41 2.55l0.09 -0.51c0,0 -0.27,-0.1 -0.55,-0.1 -0.31,0 -1.03,0.13 -1.03,0.78 0,0.61 0.85,0.62 0.85,0.94 0,0.32 -0.76,0.26 -1.01,0.06l-0.09 0.53c0,0 0.27,0.13 0.69,0.13 0.42,0 1.05,-0.22 1.05,-0.81 0,-0.61 -0.86,-0.67 -0.86,-0.94 0,-0.27 0.6,-0.23 0.86,-0.09z"/>
   <path class="fil10" d="M15.49 3.26l-0.21 -1.06c0,0 -0.03,-0.21 -0.29,-0.21l-0.97 0 -0.01 0.04c0,0 0.47,0.1 0.91,0.46 0.43,0.35 0.57,0.78 0.57,0.78z"/>
  </g>
  <g>
   <path class="fil0" d="M33.99 0.32l-9.33 0 0 -0.32 9.33 0 0 0 0 0.32zm0.95 0.63l-0.32 0 0 0 -0 -0.03 -0 -0.03 -0 -0.03 -0.01 -0.03 -0.01 -0.03 -0.01 -0.03 -0.01 -0.03 -0.01 -0.03 -0.01 -0.03 -0.01 -0.03 -0.02 -0.03 -0.02 -0.03 -0.02 -0.02 -0.02 -0.02 -0.02 -0.02 -0.02 -0.02 -0.02 -0.02 -0.02 -0.02 -0.02 -0.02 -0.02 -0.02 -0.03 -0.02 -0.03 -0.02 -0.03 -0.01 -0.03 -0.01 -0.03 -0.01 -0.03 -0.01 -0.03 -0.01 -0.03 -0.01 -0.03 -0.01 -0.03 -0 -0.03 -0 -0.03 -0 0 -0.32 0.05 0 0.05 0 0.05 0.01 0.05 0.01 0.05 0.01 0.05 0.01 0.04 0.02 0.04 0.02 0.04 0.02 0.04 0.02 0.04 0.02 0.04 0.02 0.04 0.03 0.04 0.03 0.03 0.03 0.03 0.03 0.03 0.03 0.03 0.03 0.03 0.04 0.03 0.04 0.03 0.04 0.02 0.04 0.02 0.04 0.02 0.04 0.02 0.04 0.02 0.04 0.01 0.05 0.01 0.05 0.01 0.05 0.01 0.05 0 0.05 0 0.05 0 0zm-0.32 4.42l0 -4.42 0.32 0 0 4.42 0 0 -0.32 0zm-0.63 0.95l0 -0.32 0 0 0.03 -0 0.03 -0 0.03 -0 0.03 -0.01 0.03 -0.01 0.03 -0.01 0.03 -0.01 0.03 -0.01 0.03 -0.01 0.03 -0.01 0.03 -0.02 0.03 -0.02 0.02 -0.02 0.02 -0.02 0.02 -0.02 0.02 -0.02 0.02 -0.02 0.02 -0.02 0.02 -0.02 0.02 -0.02 0.02 -0.03 0.02 -0.03 0.01 -0.03 0.01 -0.03 0.01 -0.03 0.01 -0.03 0.01 -0.03 0.01 -0.03 0.01 -0.03 0 -0.03 0 -0.03 0 -0.03 0.32 0 -0 0.05 -0 0.05 -0.01 0.05 -0.01 0.05 -0.01 0.05 -0.01 0.05 -0.02 0.04 -0.02 0.04 -0.02 0.04 -0.02 0.04 -0.02 0.04 -0.03 0.04 -0.03 0.04 -0.03 0.04 -0.03 0.03 -0.03 0.03 -0.03 0.03 -0.03 0.03 -0.04 0.03 -0.04 0.03 -0.04 0.02 -0.04 0.02 -0.04 0.02 -0.04 0.02 -0.04 0.02 -0.04 0.02 -0.05 0.01 -0.05 0.01 -0.05 0.01 -0.05 0.01 -0.05 0 -0.05 0 0 0zm-9.33 -0.32l9.33 0 0 0.32 -9.33 0 0 0 0 -0.32zm-0.95 -0.63l0.32 0 0 0 0 0.03 0 0.03 0 0.03 0.01 0.03 0.01 0.03 0.01 0.03 0.01 0.03 0.01 0.03 0.01 0.03 0.01 0.03 0.02 0.03 0.02 0.03 0.02 0.03 0.02 0.02 0.02 0.02 0.02 0.02 0.02 0.02 0.02 0.02 0.02 0.02 0.02 0.02 0.03 0.02 0.03 0.02 0.03 0.01 0.03 0.01 0.03 0.01 0.03 0.01 0.03 0.01 0.03 0.01 0.03 0.01 0.03 0 0.03 0 0.03 0 0 0.32 -0.05 -0 -0.05 -0 -0.05 -0.01 -0.05 -0.01 -0.05 -0.01 -0.05 -0.01 -0.04 -0.02 -0.04 -0.02 -0.04 -0.02 -0.04 -0.02 -0.04 -0.02 -0.04 -0.02 -0.04 -0.03 -0.04 -0.03 -0.03 -0.03 -0.03 -0.03 -0.03 -0.03 -0.03 -0.03 -0.03 -0.04 -0.03 -0.04 -0.03 -0.04 -0.02 -0.04 -0.02 -0.04 -0.02 -0.04 -0.02 -0.04 -0.02 -0.04 -0.01 -0.05 -0.01 -0.05 -0.01 -0.05 -0.01 -0.05 -0 -0.05 -0 -0.05 0 0zm0.32 -4.42l0 4.42 -0.32 0 0 -4.42 0 0 0.32 0zm0.63 -0.95l0 0.32 0 0 -0.03 0 -0.03 0 -0.03 0 -0.03 0.01 -0.03 0.01 -0.03 0.01 -0.03 0.01 -0.03 0.01 -0.03 0.01 -0.03 0.01 -0.03 0.02 -0.03 0.02 -0.02 0.02 -0.02 0.02 -0.02 0.02 -0.02 0.02 -0.02 0.02 -0.02 0.02 -0.02 0.02 -0.02 0.03 -0.02 0.03 -0.02 0.03 -0.01 0.03 -0.01 0.03 -0.01 0.03 -0.01 0.03 -0.01 0.03 -0.01 0.03 -0.01 0.03 -0 0.03 -0 0.03 -0 0.03 -0.32 0 0 -0.05 0 -0.05 0.01 -0.05 0.01 -0.05 0.01 -0.05 0.01 -0.05 0.02 -0.04 0.02 -0.04 0.02 -0.04 0.02 -0.04 0.02 -0.04 0.03 -0.04 0.03 -0.04 0.03 -0.04 0.03 -0.03 0.03 -0.03 0.03 -0.03 0.03 -0.03 0.04 -0.03 0.04 -0.03 0.04 -0.02 0.04 -0.02 0.04 -0.02 0.04 -0.02 0.04 -0.02 0.04 -0.02 0.05 -0.01 0.05 -0.01 0.05 -0.01 0.05 -0.01 0.05 -0 0.05 -0 0 0z"/>
   <path id="_1_2" class="fil1" d="M24.66 0.16l9.33 0c0.44,0 0.79,0.36 0.79,0.79l0 4.42c0,0.44 -0.36,0.79 -0.79,0.79l-9.33 0c-0.44,0 -0.79,-0.36 -0.79,-0.79l0 -4.42c0,-0.44 0.36,-0.79 0.79,-0.79z"/>
  </g>
  <g id="_1216188954240">
   <path class="fil11" d="M26.58 2.31c0.09,-0.03 0.19,-0.05 0.29,-0.05 0.44,0 0.8,0.31 0.88,0.72l0.62 -0.13c-0.14,-0.69 -0.75,-1.22 -1.49,-1.22l-0.03 0c-0.16,0 -0.32,0.03 -0.47,0.08l0.2 0.6z"/>
   <path class="fil12" d="M25.85 4.31l0.42 -0.47c-0.19,-0.16 -0.3,-0.41 -0.3,-0.67 0,-0.27 0.12,-0.51 0.3,-0.67l-0.42 -0.47c-0.32,0.28 -0.52,0.69 -0.52,1.15 0,0.46 0.2,0.87 0.52,1.15z"/>
   <path class="fil13" d="M27.74 3.34c-0.08,0.41 -0.45,0.72 -0.88,0.72 -0.1,0 -0.2,-0.02 -0.29,-0.05l-0.2 0.6c0.15,0.05 0.32,0.08 0.49,0.08 0.74,0 1.36,-0.52 1.5,-1.22l-0.62 -0.13z"/>
   <path class="fil14" d="M30.13 3.67c0,0 -0,0 -0,0l-0.02 -0.01c-0.05,0.08 -0.13,0.15 -0.23,0.19 -0.19,0.08 -0.36,0.06 -0.49,-0.05l-0.01 0.02c0,0 -0,-0 -0,-0l-0.21 0.32c0.05,0.04 0.11,0.07 0.17,0.09 0.24,0.1 0.48,0.09 0.72,-0.01 0.17,-0.07 0.31,-0.19 0.4,-0.33l-0.33 -0.22zm-0.67 -0.79c-0.2,0.09 -0.3,0.27 -0.28,0.49l0.85 -0.36c-0.15,-0.17 -0.34,-0.23 -0.57,-0.13zm-0.56 0.98c-0.02,-0.03 -0.05,-0.09 -0.06,-0.12 -0.1,-0.23 -0.1,-0.46 -0.02,-0.69 0.09,-0.25 0.26,-0.44 0.49,-0.53 0.28,-0.12 0.59,-0.1 0.86,0.06 0.17,0.1 0.29,0.25 0.39,0.46 0.01,0.03 0.02,0.06 0.03,0.08l-1.68 0.73z"/>
   <path class="fil14" d="M31.17 2.04l0 1.79 0.28 0.11 -0.16 0.37 -0.31 -0.13c-0.07,-0.03 -0.12,-0.08 -0.15,-0.13 -0.03,-0.05 -0.06,-0.12 -0.06,-0.22l0 -1.79 0.4 0z"/>
   <path class="fil14" d="M31.89 3.37c0,-0.15 0.07,-0.29 0.17,-0.38l-0.28 -0.32c-0.19,0.17 -0.32,0.42 -0.32,0.7 -0,0.28 0.12,0.53 0.31,0.7l0.28 -0.32c-0.11,-0.09 -0.17,-0.23 -0.17,-0.38z"/>
   <path class="fil14" d="M32.4 3.88c-0.06,-0 -0.11,-0.01 -0.16,-0.03l-0.14 0.4c0.09,0.03 0.19,0.05 0.3,0.05 0.45,0 0.83,-0.32 0.92,-0.75l-0.42 -0.09c-0.05,0.23 -0.25,0.4 -0.5,0.4z"/>
   <path class="fil14" d="M32.4 2.44c-0.1,-0 -0.2,0.02 -0.3,0.05l0.14 0.41c0.05,-0.02 0.1,-0.03 0.16,-0.03 0.25,0 0.45,0.17 0.5,0.41l0.42 -0.08c-0.09,-0.43 -0.46,-0.75 -0.91,-0.75z"/>
  </g>
  <g>
   <path class="fil0" d="M69.42 0.32l-9.33 0 0 -0.32 9.33 0 0 0 0 0.32zm0.95 0.63l-0.32 0 0 0 -0 -0.03 -0 -0.03 -0 -0.03 -0.01 -0.03 -0.01 -0.03 -0.01 -0.03 -0.01 -0.03 -0.01 -0.03 -0.01 -0.03 -0.01 -0.03 -0.02 -0.03 -0.02 -0.03 -0.02 -0.02 -0.02 -0.02 -0.02 -0.02 -0.02 -0.02 -0.02 -0.02 -0.02 -0.02 -0.02 -0.02 -0.02 -0.02 -0.03 -0.02 -0.03 -0.02 -0.03 -0.01 -0.03 -0.01 -0.03 -0.01 -0.03 -0.01 -0.03 -0.01 -0.03 -0.01 -0.03 -0.01 -0.03 -0 -0.03 -0 -0.03 -0 0 -0.32 0.05 0 0.05 0 0.05 0.01 0.05 0.01 0.05 0.01 0.05 0.01 0.04 0.02 0.04 0.02 0.04 0.02 0.04 0.02 0.04 0.02 0.04 0.02 0.04 0.03 0.04 0.03 0.03 0.03 0.03 0.03 0.03 0.03 0.03 0.03 0.03 0.04 0.03 0.04 0.03 0.04 0.02 0.04 0.02 0.04 0.02 0.04 0.02 0.04 0.02 0.04 0.01 0.05 0.01 0.05 0.01 0.05 0.01 0.05 0 0.05 0 0.05 0 0zm-0.32 4.42l0 -4.42 0.32 0 0 4.42 0 0 -0.32 0zm-0.63 0.95l0 -0.32 0 0 0.03 -0 0.03 -0 0.03 -0 0.03 -0.01 0.03 -0.01 0.03 -0.01 0.03 -0.01 0.03 -0.01 0.03 -0.01 0.03 -0.01 0.03 -0.02 0.03 -0.02 0.02 -0.02 0.02 -0.02 0.02 -0.02 0.02 -0.02 0.02 -0.02 0.02 -0.02 0.02 -0.02 0.02 -0.02 0.02 -0.03 0.02 -0.03 0.01 -0.03 0.01 -0.03 0.01 -0.03 0.01 -0.03 0.01 -0.03 0.01 -0.03 0.01 -0.03 0 -0.03 0 -0.03 0 -0.03 0.32 0 -0 0.05 -0 0.05 -0.01 0.05 -0.01 0.05 -0.01 0.05 -0.01 0.05 -0.02 0.04 -0.02 0.04 -0.02 0.04 -0.02 0.04 -0.02 0.04 -0.03 0.04 -0.03 0.04 -0.03 0.04 -0.03 0.03 -0.03 0.03 -0.03 0.03 -0.03 0.03 -0.04 0.03 -0.04 0.03 -0.04 0.02 -0.04 0.02 -0.04 0.02 -0.04 0.02 -0.04 0.02 -0.04 0.02 -0.05 0.01 -0.05 0.01 -0.05 0.01 -0.05 0.01 -0.05 0 -0.05 0 0 0zm-9.33 -0.32l9.33 0 0 0.32 -9.33 0 0 0 0 -0.32zm-0.95 -0.63l0.32 0 0 0 0 0.03 0 0.03 0 0.03 0.01 0.03 0.01 0.03 0.01 0.03 0.01 0.03 0.01 0.03 0.01 0.03 0.01 0.03 0.02 0.03 0.02 0.03 0.02 0.02 0.02 0.02 0.02 0.02 0.02 0.02 0.02 0.02 0.02 0.02 0.02 0.02 0.02 0.02 0.03 0.02 0.03 0.02 0.03 0.01 0.03 0.01 0.03 0.01 0.03 0.01 0.03 0.01 0.03 0.01 0.03 0.01 0.03 0 0.03 0 0.03 0 0 0.32 -0.05 -0 -0.05 -0 -0.05 -0.01 -0.05 -0.01 -0.05 -0.01 -0.05 -0.01 -0.04 -0.02 -0.04 -0.02 -0.04 -0.02 -0.04 -0.02 -0.04 -0.02 -0.04 -0.02 -0.04 -0.03 -0.04 -0.03 -0.03 -0.03 -0.03 -0.03 -0.03 -0.03 -0.03 -0.03 -0.03 -0.04 -0.03 -0.04 -0.02 -0.04 -0.02 -0.04 -0.02 -0.04 -0.02 -0.04 -0.02 -0.04 -0.02 -0.04 -0.01 -0.05 -0.01 -0.05 -0.01 -0.05 -0.01 -0.05 -0 -0.05 -0 -0.05 0 0zm0.32 -4.42l0 4.42 -0.32 0 0 -4.42 0 0 0.32 0zm0.63 -0.95l0 0.32 0 0 -0.03 0 -0.03 0 -0.03 0 -0.03 0.01 -0.03 0.01 -0.03 0.01 -0.03 0.01 -0.03 0.01 -0.03 0.01 -0.03 0.01 -0.03 0.02 -0.03 0.02 -0.02 0.02 -0.02 0.02 -0.02 0.02 -0.02 0.02 -0.02 0.02 -0.02 0.02 -0.02 0.02 -0.02 0.02 -0.02 0.03 -0.02 0.03 -0.01 0.03 -0.01 0.03 -0.01 0.03 -0.01 0.03 -0.01 0.03 -0.01 0.03 -0.01 0.03 -0 0.03 -0 0.03 -0 0.03 -0.32 0 0 -0.05 0 -0.05 0.01 -0.05 0.01 -0.05 0.01 -0.05 0.01 -0.05 0.02 -0.04 0.02 -0.04 0.02 -0.04 0.02 -0.04 0.02 -0.04 0.02 -0.04 0.03 -0.04 0.03 -0.04 0.03 -0.03 0.03 -0.03 0.03 -0.03 0.03 -0.03 0.04 -0.03 0.04 -0.03 0.04 -0.02 0.04 -0.02 0.04 -0.02 0.04 -0.02 0.04 -0.02 0.04 -0.02 0.05 -0.01 0.05 -0.01 0.05 -0.01 0.05 -0.01 0.05 -0 0.05 -0 0 0z"/>
   <path id="_1_3" class="fil1" d="M60.09 0.16l9.33 0c0.44,0 0.79,0.36 0.79,0.79l0 4.42c0,0.44 -0.36,0.79 -0.79,0.79l-9.33 0c-0.44,0 -0.79,-0.36 -0.79,-0.79l0 -4.42c0,-0.44 0.36,-0.79 0.79,-0.79z"/>
  </g>
  <g id="_1216188955680">
   <g>
    <polygon class="fil15" points="62.79,3.36 62.64,3.36 62.64,1.29 62.79,1.29 "/>
    <polygon class="fil15" points="62.58,3.36 62.5,3.36 62.5,1.29 62.58,1.29 "/>
    <polygon class="fil15" points="68.07,3.36 68.07,1.29 68.15,1.29 68.15,3.36 "/>
    <polygon class="fil15" points="67.95,3.36 67.95,1.29 68.02,1.29 68.02,3.36 "/>
    <polygon class="fil15" points="67.74,3.36 67.74,1.29 67.82,1.29 67.82,3.36 "/>
    <polygon class="fil15" points="67.46,3.36 67.46,1.29 67.54,1.29 67.54,3.36 "/>
    <polygon class="fil15" points="67.1,3.36 67.1,1.29 67.34,1.29 67.34,3.36 "/>
    <polygon class="fil15" points="66.64,3.36 66.64,1.29 66.88,1.29 66.88,3.36 "/>
    <polygon class="fil15" points="66.43,3.36 66.43,1.29 66.51,1.29 66.51,3.36 "/>
    <polygon class="fil15" points="66.24,3.36 66.24,1.29 66.38,1.29 66.38,3.36 "/>
    <polygon class="fil15" points="65.94,3.36 65.94,1.29 66.11,1.29 66.11,3.36 "/>
    <polygon class="fil15" points="65.65,3.36 65.65,1.29 65.87,1.29 65.87,3.36 "/>
    <polygon class="fil15" points="65.45,3.36 65.45,1.29 65.52,1.29 65.52,3.36 "/>
    <polygon class="fil15" points="65.05,3.36 65.05,1.29 65.13,1.29 65.13,3.36 "/>
    <polygon class="fil15" points="64.9,3.36 64.9,1.29 64.98,1.29 64.98,3.36 "/>
    <polygon class="fil15" points="64.76,3.36 64.76,1.29 64.84,1.29 64.84,3.36 "/>
    <polygon class="fil15" points="64.63,3.36 64.63,1.29 64.71,1.29 64.71,3.36 "/>
    <polygon class="fil15" points="64.51,3.36 64.51,1.29 64.58,1.29 64.58,3.36 "/>
    <polygon class="fil15" points="64.16,3.36 64.16,1.29 64.3,1.29 64.3,3.36 "/>
    <polygon class="fil15" points="64.01,3.36 64.01,1.29 64.09,1.29 64.09,3.36 "/>
    <polygon class="fil15" points="63.63,3.36 63.63,1.29 63.77,1.29 63.77,3.36 "/>
    <polygon class="fil15" points="63.5,3.36 63.5,1.29 63.58,1.29 63.58,3.36 "/>
    <polygon class="fil15" points="63.3,3.36 63.3,1.29 63.44,1.29 63.44,3.36 "/>
    <polygon class="fil15" points="63.09,3.36 62.87,3.36 62.87,1.29 63.09,1.29 "/>
    <polygon class="fil15" points="62.06,1.29 62.06,3.36 61.98,3.36 61.98,1.29 "/>
    <polygon class="fil15" points="62.42,3.36 62.14,3.36 62.14,1.29 62.42,1.29 "/>
    <polygon class="fil15" points="61.43,1.29 61.43,3.36 61.35,3.36 61.35,1.29 "/>
    <polygon class="fil15" points="61.59,1.29 61.59,3.36 61.51,3.36 61.51,1.29 "/>
    <polygon class="fil15" points="61.86,1.29 61.86,3.36 61.71,3.36 61.71,1.29 "/>
   </g>
   <path class="fil16" d="M62.09 4.43c0.08,0.02 0.14,0.05 0.18,0.1 0.04,0.05 0.06,0.11 0.06,0.19 0,0.1 -0.04,0.18 -0.11,0.23 -0.07,0.05 -0.18,0.08 -0.33,0.08l-0.54 0 0 -1.16 0.5 0c0.13,0 0.23,0.03 0.3,0.08 0.07,0.05 0.11,0.13 0.11,0.22 0,0.06 -0.02,0.12 -0.05,0.16 -0.03,0.05 -0.08,0.08 -0.13,0.1zm-0.61 -0.46l0 0.42 0.37 0c0.09,0 0.17,-0.02 0.22,-0.05 0.05,-0.04 0.08,-0.09 0.08,-0.16 0,-0.07 -0.03,-0.12 -0.08,-0.16 -0.05,-0.04 -0.12,-0.05 -0.22,-0.05l-0.37 0zm0.41 0.96c0.1,0 0.18,-0.02 0.24,-0.05 0.05,-0.04 0.08,-0.09 0.08,-0.17 0,-0.15 -0.11,-0.22 -0.32,-0.22l-0.41 0 0 0.44 0.41 0zm1.23 0.11c-0.12,0 -0.22,-0.03 -0.31,-0.08 -0.09,-0.05 -0.17,-0.12 -0.22,-0.21 -0.05,-0.09 -0.08,-0.19 -0.08,-0.3 0,-0.11 0.03,-0.21 0.08,-0.3 0.05,-0.09 0.13,-0.16 0.22,-0.21 0.09,-0.05 0.2,-0.08 0.31,-0.08 0.12,0 0.22,0.03 0.31,0.08 0.09,0.05 0.17,0.12 0.22,0.21 0.05,0.09 0.08,0.19 0.08,0.3 0,0.11 -0.03,0.21 -0.08,0.3 -0.05,0.09 -0.13,0.16 -0.22,0.21 -0.09,0.05 -0.2,0.08 -0.31,0.08zm0 -0.11c0.09,0 0.17,-0.02 0.25,-0.06 0.07,-0.04 0.13,-0.1 0.17,-0.17 0.04,-0.07 0.06,-0.16 0.06,-0.25 0,-0.09 -0.02,-0.17 -0.06,-0.25 -0.04,-0.07 -0.1,-0.13 -0.17,-0.17 -0.07,-0.04 -0.16,-0.06 -0.25,-0.06 -0.09,0 -0.18,0.02 -0.25,0.06 -0.07,0.04 -0.13,0.1 -0.18,0.17 -0.04,0.07 -0.06,0.16 -0.06,0.25 0,0.09 0.02,0.17 0.06,0.25 0.04,0.07 0.1,0.13 0.18,0.17 0.07,0.04 0.16,0.06 0.25,0.06zm0.89 -1.06l0.12 0 0 1.06 0.65 0 0 0.11 -0.77 0 0 -1.16zm1.8 1.06l0 0.11 -0.82 0 0 -1.16 0.8 0 0 0.11 -0.68 0 0 0.41 0.6 0 0 0.1 -0.6 0 0 0.43 0.7 0zm0.52 -0.95l-0.41 0 0 -0.11 0.94 0 0 0.11 -0.41 0 0 1.06 -0.12 0 0 -1.06zm1.22 1.07c-0.12,0 -0.22,-0.03 -0.31,-0.08 -0.09,-0.05 -0.17,-0.12 -0.22,-0.21 -0.05,-0.09 -0.08,-0.19 -0.08,-0.3 0,-0.11 0.03,-0.21 0.08,-0.3 0.05,-0.09 0.13,-0.16 0.22,-0.21 0.09,-0.05 0.2,-0.08 0.31,-0.08 0.12,0 0.22,0.03 0.31,0.08 0.09,0.05 0.17,0.12 0.22,0.21 0.05,0.09 0.08,0.19 0.08,0.3 0,0.11 -0.03,0.21 -0.08,0.3 -0.05,0.09 -0.13,0.16 -0.22,0.21 -0.09,0.05 -0.2,0.08 -0.31,0.08zm0 -0.11c0.09,0 0.17,-0.02 0.25,-0.06 0.07,-0.04 0.13,-0.1 0.17,-0.17 0.04,-0.07 0.06,-0.16 0.06,-0.25 0,-0.09 -0.02,-0.17 -0.06,-0.25 -0.04,-0.07 -0.1,-0.13 -0.17,-0.17 -0.07,-0.04 -0.16,-0.06 -0.25,-0.06 -0.09,0 -0.18,0.02 -0.25,0.06 -0.07,0.04 -0.13,0.1 -0.18,0.17 -0.04,0.07 -0.06,0.16 -0.06,0.25 0,0.09 0.02,0.17 0.06,0.25 0.04,0.07 0.1,0.13 0.18,0.17 0.07,0.04 0.16,0.06 0.25,0.06z"/>
  </g>
  <g>
   <path class="fil0" d="M45.72 0.32l-9.33 0 0 -0.32 9.33 0 0 0 0 0.32zm0.95 0.63l-0.32 0 0 0 -0 -0.03 -0 -0.03 -0 -0.03 -0.01 -0.03 -0.01 -0.03 -0.01 -0.03 -0.01 -0.03 -0.01 -0.03 -0.01 -0.03 -0.01 -0.03 -0.02 -0.03 -0.02 -0.03 -0.02 -0.02 -0.02 -0.02 -0.02 -0.02 -0.02 -0.02 -0.02 -0.02 -0.02 -0.02 -0.02 -0.02 -0.02 -0.02 -0.03 -0.02 -0.03 -0.02 -0.03 -0.01 -0.03 -0.01 -0.03 -0.01 -0.03 -0.01 -0.03 -0.01 -0.03 -0.01 -0.03 -0.01 -0.03 -0 -0.03 -0 -0.03 -0 0 -0.32 0.05 0 0.05 0 0.05 0.01 0.05 0.01 0.05 0.01 0.05 0.01 0.04 0.02 0.04 0.02 0.04 0.02 0.04 0.02 0.04 0.02 0.04 0.02 0.04 0.03 0.04 0.03 0.03 0.03 0.03 0.03 0.03 0.03 0.03 0.03 0.03 0.04 0.03 0.04 0.02 0.04 0.02 0.04 0.02 0.04 0.02 0.04 0.02 0.04 0.02 0.04 0.01 0.05 0.01 0.05 0.01 0.05 0.01 0.05 0 0.05 0 0.05 0 0zm-0.32 4.42l0 -4.42 0.32 0 0 4.42 0 0 -0.32 0zm-0.63 0.95l0 -0.32 0 0 0.03 -0 0.03 -0 0.03 -0 0.03 -0.01 0.03 -0.01 0.03 -0.01 0.03 -0.01 0.03 -0.01 0.03 -0.01 0.03 -0.01 0.03 -0.02 0.03 -0.02 0.02 -0.02 0.02 -0.02 0.02 -0.02 0.02 -0.02 0.02 -0.02 0.02 -0.02 0.02 -0.02 0.02 -0.02 0.02 -0.03 0.02 -0.03 0.01 -0.03 0.01 -0.03 0.01 -0.03 0.01 -0.03 0.01 -0.03 0.01 -0.03 0.01 -0.03 0 -0.03 0 -0.03 0 -0.03 0.32 0 -0 0.05 -0 0.05 -0.01 0.05 -0.01 0.05 -0.01 0.05 -0.01 0.05 -0.02 0.04 -0.02 0.04 -0.02 0.04 -0.02 0.04 -0.02 0.04 -0.02 0.04 -0.03 0.04 -0.03 0.04 -0.03 0.03 -0.03 0.03 -0.03 0.03 -0.03 0.03 -0.04 0.03 -0.04 0.03 -0.04 0.02 -0.04 0.02 -0.04 0.02 -0.04 0.02 -0.04 0.02 -0.04 0.02 -0.05 0.01 -0.05 0.01 -0.05 0.01 -0.05 0.01 -0.05 0 -0.05 0 0 0zm-9.33 -0.32l9.33 0 0 0.32 -9.33 0 0 0 0 -0.32zm-0.95 -0.63l0.32 0 0 0 0 0.03 0 0.03 0 0.03 0.01 0.03 0.01 0.03 0.01 0.03 0.01 0.03 0.01 0.03 0.01 0.03 0.01 0.03 0.02 0.03 0.02 0.03 0.02 0.02 0.02 0.02 0.02 0.02 0.02 0.02 0.02 0.02 0.02 0.02 0.02 0.02 0.02 0.02 0.03 0.02 0.03 0.02 0.03 0.01 0.03 0.01 0.03 0.01 0.03 0.01 0.03 0.01 0.03 0.01 0.03 0.01 0.03 0 0.03 0 0.03 0 0 0.32 -0.05 -0 -0.05 -0 -0.05 -0.01 -0.05 -0.01 -0.05 -0.01 -0.05 -0.01 -0.04 -0.02 -0.04 -0.02 -0.04 -0.02 -0.04 -0.02 -0.04 -0.02 -0.04 -0.02 -0.04 -0.03 -0.04 -0.03 -0.03 -0.03 -0.03 -0.03 -0.03 -0.03 -0.03 -0.03 -0.03 -0.04 -0.03 -0.04 -0.02 -0.04 -0.02 -0.04 -0.02 -0.04 -0.02 -0.04 -0.02 -0.04 -0.02 -0.04 -0.01 -0.05 -0.01 -0.05 -0.01 -0.05 -0.01 -0.05 -0 -0.05 -0 -0.05 0 0zm0.32 -4.42l0 4.42 -0.32 0 0 -4.42 0 0 0.32 0zm0.63 -0.95l0 0.32 0 0 -0.03 0 -0.03 0 -0.03 0 -0.03 0.01 -0.03 0.01 -0.03 0.01 -0.03 0.01 -0.03 0.01 -0.03 0.01 -0.03 0.01 -0.03 0.02 -0.03 0.02 -0.02 0.02 -0.02 0.02 -0.02 0.02 -0.02 0.02 -0.02 0.02 -0.02 0.02 -0.02 0.02 -0.02 0.02 -0.02 0.03 -0.02 0.03 -0.01 0.03 -0.01 0.03 -0.01 0.03 -0.01 0.03 -0.01 0.03 -0.01 0.03 -0.01 0.03 -0 0.03 -0 0.03 -0 0.03 -0.32 0 0 -0.05 0 -0.05 0.01 -0.05 0.01 -0.05 0.01 -0.05 0.01 -0.05 0.02 -0.04 0.02 -0.04 0.02 -0.04 0.02 -0.04 0.02 -0.04 0.02 -0.04 0.03 -0.04 0.03 -0.04 0.03 -0.03 0.03 -0.03 0.03 -0.03 0.03 -0.03 0.04 -0.03 0.04 -0.03 0.04 -0.02 0.04 -0.02 0.04 -0.02 0.04 -0.02 0.04 -0.02 0.04 -0.02 0.05 -0.01 0.05 -0.01 0.05 -0.01 0.05 -0.01 0.05 -0 0.05 -0 0 0z"/>
   <path id="_1_4" class="fil1" d="M36.38 0.16l9.33 0c0.44,0 0.79,0.36 0.79,0.79l0 4.42c0,0.44 -0.36,0.79 -0.79,0.79l-9.33 0c-0.44,0 -0.79,-0.36 -0.79,-0.79l0 -4.42c0,-0.44 0.36,-0.79 0.79,-0.79z"/>
  </g>
  <g id="_1216188942624">
   <path class="fil16" d="M37.86 2.44l-0.15 -0.36 -0.15 0.36 0.3 0zm3.3 -0.15l0 0c-0.03,0.02 -0.07,0.02 -0.11,0.02l-0.27 0 0 -0.2 0.27 0c0.04,0 0.08,0 0.1,0.02 0.03,0.01 0.05,0.04 0.05,0.08 0,0.04 -0.02,0.07 -0.05,0.09zm1.89 0.15l0 0 -0.15 -0.36 -0.15 0.36 0.3 0zm-3.53 0.39l0 0 -0.22 0 -0 -0.72 -0.32 0.72 -0.19 0 -0.32 -0.72 0 0.72 -0.44 0 -0.08 -0.2 -0.46 0 -0.08 0.2 -0.24 0 0.39 -0.91 0.32 0 0.37 0.87 0 -0.87 0.36 0 0.29 0.62 0.26 -0.62 0.36 0 0 0.91 0 0zm0.89 0l0 0 -0.73 0 0 -0.91 0.73 0 0 0.19 -0.51 0 0 0.16 0.5 0 0 0.19 -0.5 0 0 0.18 0.51 0 0 0.19zm1.03 -0.67l0 0c0,0.15 -0.1,0.22 -0.15,0.24 0.05,0.02 0.09,0.05 0.11,0.08 0.03,0.05 0.04,0.09 0.04,0.17l0 0.18 -0.22 0 -0 -0.12c0,-0.06 0.01,-0.13 -0.03,-0.18 -0.03,-0.03 -0.08,-0.04 -0.16,-0.04l-0.23 0 0 0.33 -0.22 0 0 -0.91 0.5 0c0.11,0 0.19,0 0.26,0.04 0.07,0.04 0.11,0.1 0.11,0.2zm0.35 0.67l0 0 -0.22 0 0 -0.91 0.22 0 0 0.91zm2.59 0l0 0 -0.31 0 -0.41 -0.69 0 0.69 -0.45 0 -0.09 -0.2 -0.45 0 -0.08 0.2 -0.26 0c-0.11,0 -0.24,-0.02 -0.32,-0.1 -0.08,-0.08 -0.12,-0.18 -0.12,-0.35 0,-0.14 0.02,-0.26 0.12,-0.36 0.07,-0.07 0.18,-0.11 0.33,-0.11l0.21 0 0 0.2 -0.21 0c-0.08,0 -0.12,0.01 -0.17,0.05 -0.04,0.04 -0.06,0.11 -0.06,0.21 0,0.1 0.02,0.17 0.06,0.21 0.03,0.04 0.09,0.05 0.15,0.05l0.1 0 0.31 -0.72 0.33 0 0.37 0.87 0 -0.87 0.33 0 0.38 0.64 0 -0.64 0.22 0 0 0.91zm-6.85 0.18l0.08 -0.2 0.19 0 0.08 0.2 0.73 0 0 -0.16 0.07 0.16 0.38 0 0.07 -0.16 0 0.16 1.83 0 -0 -0.33 0.04 0c0.02,0 0.03,0 0.03,0.04l0 0.29 0.94 0 0 -0.08c0.08,0.04 0.19,0.08 0.35,0.08l0.4 0 0.09 -0.2 0.19 0 0.08 0.2 0.77 0 0 -0.19 0.12 0.19 0.61 0 0 -1.28 -0.61 0 0 0.15 -0.08 -0.15 -0.62 0 0 0.15 -0.08 -0.15 -0.84 0c-0.14,0 -0.26,0.02 -0.36,0.07l0 -0.07 -0.58 0 0 0.07c-0.06,-0.06 -0.15,-0.07 -0.25,-0.07l-2.12 0 -0.14 0.33 -0.15 -0.33 -0.67 0 0 0.15 -0.07 -0.15 -0.57 0 -0.26 0.61 0 0.67 0.37 0z"/>
   <path class="fil16" d="M44.94 3.69l-0.4 0c-0.04,0 -0.07,0 -0.09,0.02 -0.02,0.01 -0.03,0.04 -0.03,0.07 0,0.03 0.02,0.06 0.05,0.07 0.02,0.01 0.05,0.01 0.08,0.01l0.12 0c0.12,0 0.2,0.02 0.25,0.07 0.01,0.01 0.01,0.01 0.02,0.02l0 -0.26zm0 0.6l0 0c-0.05,0.08 -0.16,0.12 -0.3,0.12l-0.42 0 0 -0.2 0.42 0c0.04,0 0.07,-0.01 0.09,-0.02 0.02,-0.01 0.03,-0.03 0.03,-0.06 0,-0.03 -0.01,-0.05 -0.03,-0.06 -0.02,-0.01 -0.04,-0.02 -0.08,-0.02 -0.21,-0.01 -0.46,0.01 -0.46,-0.28 0,-0.13 0.08,-0.27 0.31,-0.27l0.44 0 0 -0.18 -0.4 0c-0.12,0 -0.21,0.03 -0.27,0.07l0 -0.07 -0.6 0c-0.1,0 -0.21,0.02 -0.26,0.07l0 -0.07 -1.07 0 0 0.07c-0.09,-0.06 -0.23,-0.07 -0.29,-0.07l-0.7 0 0 0.07c-0.07,-0.07 -0.22,-0.07 -0.31,-0.07l-0.79 0 -0.18 0.2 -0.17 -0.2 -1.18 0 0 1.28 1.16 0 0.19 -0.2 0.18 0.2 0.71 0 0 -0.3 0.07 0c0.09,0 0.21,-0 0.3,-0.05l0 0.34 0.59 0 0 -0.33 0.03 0c0.04,0 0.04,0 0.04,0.04l0 0.29 1.79 0c0.11,0 0.23,-0.03 0.3,-0.08l0 0.08 0.57 0c0.12,0 0.23,-0.02 0.32,-0.06l0 -0.24zm-0.87 -0.37l0 0c0.04,0.04 0.07,0.1 0.07,0.19 0,0.2 -0.12,0.29 -0.34,0.29l-0.43 0 0 -0.2 0.42 0c0.04,0 0.07,-0.01 0.09,-0.02 0.02,-0.01 0.03,-0.03 0.03,-0.06 0,-0.03 -0.01,-0.05 -0.03,-0.06 -0.02,-0.01 -0.04,-0.02 -0.08,-0.02 -0.2,-0.01 -0.46,0.01 -0.46,-0.28 0,-0.13 0.08,-0.27 0.31,-0.27l0.44 0 0 0.19 -0.4 0c-0.04,0 -0.07,0 -0.09,0.02 -0.02,0.02 -0.03,0.04 -0.03,0.07 0,0.03 0.02,0.06 0.05,0.07 0.02,0.01 0.05,0.01 0.09,0.01l0.12 0c0.12,0 0.2,0.02 0.25,0.07zm-1.97 -0.06l0 0c-0.03,0.02 -0.07,0.02 -0.11,0.02l-0.27 0 0 -0.21 0.27 0c0.04,0 0.08,0 0.1,0.02 0.03,0.01 0.05,0.04 0.05,0.08 0,0.04 -0.02,0.07 -0.05,0.09zm0.13 0.11l0 0c0.05,0.02 0.09,0.05 0.11,0.08 0.03,0.04 0.04,0.09 0.04,0.17l0 0.18 -0.22 0 0 -0.11c0,-0.05 0.01,-0.14 -0.04,-0.18 -0.03,-0.03 -0.08,-0.04 -0.16,-0.04l-0.23 0 0 0.33 -0.22 0 0 -0.91 0.5 0c0.11,0 0.19,0 0.26,0.04 0.07,0.04 0.11,0.1 0.11,0.2 0,0.15 -0.1,0.22 -0.15,0.24zm0.28 -0.49l0 0 0.73 0 0 0.19 -0.51 0 0 0.17 0.5 0 0 0.19 -0.5 0 0 0.18 0.51 0 0 0.19 -0.73 0 0 -0.91zm-1.47 0.42l0 0 -0.28 0 0 -0.23 0.29 0c0.08,0 0.13,0.03 0.13,0.11 0,0.08 -0.05,0.12 -0.14,0.12zm-0.5 0.41l0 0 -0.34 -0.37 0.34 -0.36 0 0.73zm-0.87 -0.11l0 0 -0.54 0 0 -0.18 0.48 0 0 -0.19 -0.48 0 0 -0.17 0.55 0 0.24 0.27 -0.25 0.27zm1.74 -0.42l0 0c0,0.25 -0.19,0.31 -0.38,0.31l-0.27 0 0 0.31 -0.42 0 -0.27 -0.3 -0.28 0.3 -0.87 0 0 -0.91 0.88 0 0.27 0.3 0.28 -0.3 0.7 0c0.17,0 0.37,0.05 0.37,0.3z"/>
  </g>
  <g>
   <path class="fil0" d="M57.57 0.32l-9.33 0 0 -0.32 9.33 0 0 0 0 0.32zm0.95 0.63l-0.32 0 0 0 -0 -0.03 -0 -0.03 -0 -0.03 -0.01 -0.03 -0.01 -0.03 -0.01 -0.03 -0.01 -0.03 -0.01 -0.03 -0.01 -0.03 -0.01 -0.03 -0.02 -0.03 -0.02 -0.03 -0.02 -0.02 -0.02 -0.02 -0.02 -0.02 -0.02 -0.02 -0.02 -0.02 -0.02 -0.02 -0.02 -0.02 -0.02 -0.02 -0.03 -0.02 -0.03 -0.02 -0.03 -0.01 -0.03 -0.01 -0.03 -0.01 -0.03 -0.01 -0.03 -0.01 -0.03 -0.01 -0.03 -0.01 -0.03 -0 -0.03 -0 -0.03 -0 0 -0.32 0.05 0 0.05 0 0.05 0.01 0.05 0.01 0.05 0.01 0.05 0.01 0.04 0.02 0.04 0.02 0.04 0.02 0.04 0.02 0.04 0.02 0.04 0.02 0.04 0.03 0.04 0.03 0.03 0.03 0.03 0.03 0.03 0.03 0.03 0.03 0.03 0.04 0.03 0.04 0.03 0.04 0.02 0.04 0.02 0.04 0.02 0.04 0.02 0.04 0.02 0.04 0.01 0.05 0.01 0.05 0.01 0.05 0.01 0.05 0 0.05 0 0.05 0 0zm-0.32 4.42l0 -4.42 0.32 0 0 4.42 0 0 -0.32 0zm-0.63 0.95l0 -0.32 0 0 0.03 -0 0.03 -0 0.03 -0 0.03 -0.01 0.03 -0.01 0.03 -0.01 0.03 -0.01 0.03 -0.01 0.03 -0.01 0.03 -0.01 0.03 -0.02 0.03 -0.02 0.02 -0.02 0.02 -0.02 0.02 -0.02 0.02 -0.02 0.02 -0.02 0.02 -0.02 0.02 -0.02 0.02 -0.02 0.02 -0.03 0.02 -0.03 0.01 -0.03 0.01 -0.03 0.01 -0.03 0.01 -0.03 0.01 -0.03 0.01 -0.03 0.01 -0.03 0 -0.03 0 -0.03 0 -0.03 0.32 0 -0 0.05 -0 0.05 -0.01 0.05 -0.01 0.05 -0.01 0.05 -0.01 0.05 -0.02 0.04 -0.02 0.04 -0.02 0.04 -0.02 0.04 -0.02 0.04 -0.03 0.04 -0.03 0.04 -0.03 0.04 -0.03 0.03 -0.03 0.03 -0.03 0.03 -0.03 0.03 -0.04 0.03 -0.04 0.03 -0.04 0.02 -0.04 0.02 -0.04 0.02 -0.04 0.02 -0.04 0.02 -0.04 0.02 -0.05 0.01 -0.05 0.01 -0.05 0.01 -0.05 0.01 -0.05 0 -0.05 0 0 0zm-9.33 -0.32l9.33 0 0 0.32 -9.33 0 0 0 0 -0.32zm-0.95 -0.63l0.32 0 0 0 0 0.03 0 0.03 0 0.03 0.01 0.03 0.01 0.03 0.01 0.03 0.01 0.03 0.01 0.03 0.01 0.03 0.01 0.03 0.02 0.03 0.02 0.03 0.02 0.03 0.02 0.02 0.02 0.02 0.02 0.02 0.02 0.02 0.02 0.02 0.02 0.02 0.02 0.02 0.03 0.02 0.03 0.02 0.03 0.01 0.03 0.01 0.03 0.01 0.03 0.01 0.03 0.01 0.03 0.01 0.03 0.01 0.03 0 0.03 0 0.03 0 0 0.32 -0.05 -0 -0.05 -0 -0.05 -0.01 -0.05 -0.01 -0.05 -0.01 -0.05 -0.01 -0.04 -0.02 -0.04 -0.02 -0.04 -0.02 -0.04 -0.02 -0.04 -0.02 -0.04 -0.02 -0.04 -0.03 -0.04 -0.03 -0.03 -0.03 -0.03 -0.03 -0.03 -0.03 -0.03 -0.03 -0.03 -0.04 -0.03 -0.04 -0.03 -0.04 -0.02 -0.04 -0.02 -0.04 -0.02 -0.04 -0.02 -0.04 -0.02 -0.04 -0.01 -0.05 -0.01 -0.05 -0.01 -0.05 -0.01 -0.05 -0 -0.05 -0 -0.05 0 0zm0.32 -4.42l0 4.42 -0.32 0 0 -4.42 0 0 0.32 0zm0.63 -0.95l0 0.32 0 0 -0.03 0 -0.03 0 -0.03 0 -0.03 0.01 -0.03 0.01 -0.03 0.01 -0.03 0.01 -0.03 0.01 -0.03 0.01 -0.03 0.01 -0.03 0.02 -0.03 0.02 -0.02 0.02 -0.02 0.02 -0.02 0.02 -0.02 0.02 -0.02 0.02 -0.02 0.02 -0.02 0.02 -0.02 0.03 -0.02 0.03 -0.02 0.03 -0.01 0.03 -0.01 0.03 -0.01 0.03 -0.01 0.03 -0.01 0.03 -0.01 0.03 -0.01 0.03 -0 0.03 -0 0.03 -0 0.03 -0.32 0 0 -0.05 0 -0.05 0.01 -0.05 0.01 -0.05 0.01 -0.05 0.01 -0.05 0.02 -0.04 0.02 -0.04 0.02 -0.04 0.02 -0.04 0.02 -0.04 0.03 -0.04 0.03 -0.04 0.03 -0.04 0.03 -0.03 0.03 -0.03 0.03 -0.03 0.03 -0.03 0.04 -0.03 0.04 -0.03 0.04 -0.02 0.04 -0.02 0.04 -0.02 0.04 -0.02 0.04 -0.02 0.04 -0.02 0.05 -0.01 0.05 -0.01 0.05 -0.01 0.05 -0.01 0.05 -0 0.05 -0 0 0z"/>
   <path id="_1_5" class="fil1" d="M48.23 0.16l9.33 0c0.44,0 0.79,0.36 0.79,0.79l0 4.42c0,0.44 -0.36,0.79 -0.79,0.79l-9.33 0c-0.44,0 -0.79,-0.36 -0.79,-0.79l0 -4.42c0,-0.44 0.36,-0.79 0.79,-0.79z"/>
  </g>
  <g id="_1216188941376">
   <path class="fil17" d="M51.35 1.87c-0.21,0 -0.64,0 -0.64,0 -0.29,0.01 -0.52,0.13 -0.59,0.36 -0.04,0.12 -0.05,0.26 -0.08,0.39 -0.14,0.65 -0.26,1.32 -0.4,1.96l5.02 0c0.39,0 0.65,-0.08 0.73,-0.39 0.03,-0.14 0.07,-0.31 0.1,-0.46 0.12,-0.61 0.25,-1.23 0.38,-1.86l-4.51 0z"/>
   <path class="fil18" d="M53.95 3.49c-0.07,0.07 -0.27,0.09 -0.25,-0.08 0.02,-0.14 0.16,-0.16 0.32,-0.14 -0.01,0.07 -0.03,0.17 -0.08,0.22zm-0.22 -0.53c-0.01,0.04 -0.02,0.07 -0.03,0.11 0.08,-0.02 0.33,-0.08 0.35,0.03 0.01,0.04 -0.01,0.07 -0.02,0.1 -0.22,-0.02 -0.41,0.02 -0.46,0.18 -0.03,0.11 0,0.21 0.07,0.24 0.13,0.06 0.29,-0.01 0.35,-0.1 -0.01,0.03 -0.01,0.06 -0.01,0.1l0.12 0c0,-0.11 0.02,-0.2 0.03,-0.3 0.01,-0.09 0.04,-0.17 0.04,-0.25 -0.01,-0.17 -0.3,-0.11 -0.46,-0.11zm1.17 0.58c-0.09,0 -0.14,-0.05 -0.14,-0.15 -0,-0.16 0.07,-0.35 0.21,-0.36 0.07,-0.01 0.12,0.01 0.17,0.03 -0.05,0.18 -0.03,0.48 -0.24,0.48zm0.3 -0.87c-0.01,0.1 -0.03,0.2 -0.05,0.29 -0.33,-0.1 -0.54,0.14 -0.53,0.44 0,0.06 0.01,0.12 0.05,0.16 0.06,0.07 0.24,0.09 0.33,0.03 0.02,-0.01 0.04,-0.03 0.05,-0.05 0.01,-0.01 0.02,-0.04 0.03,-0.03 -0,0.03 -0.01,0.06 -0.01,0.1l0.12 0c0.02,-0.34 0.1,-0.63 0.15,-0.94l-0.14 0zm-3.46 0.81c-0.07,0.08 -0.25,0.08 -0.26,-0.05 -0.01,-0.06 0.01,-0.11 0.03,-0.17 0.01,-0.06 0.02,-0.12 0.03,-0.17 0.07,-0.09 0.28,-0.1 0.3,0.05 0.02,0.13 -0.03,0.28 -0.09,0.35zm0.11 -0.53c-0.11,-0.04 -0.25,0.01 -0.31,0.06 0,0 -0,0 -0,0 0,-0 0,-0 0,-0 0,0 0,-0 0,-0 0,-0.02 0.01,-0.04 0.01,-0.06l-0.12 0c-0.05,0.32 -0.11,0.64 -0.17,0.95l0.14 0c0.02,-0.12 0.03,-0.25 0.06,-0.36 0.03,0.12 0.23,0.1 0.32,0.05 0.18,-0.09 0.31,-0.55 0.08,-0.64zm0.64 0.23l-0.32 0c0.01,-0.07 0.08,-0.15 0.18,-0.16 0.1,-0 0.17,0.04 0.14,0.16zm-0.13 -0.24c-0.1,0.01 -0.18,0.04 -0.24,0.1 -0.07,0.08 -0.13,0.24 -0.11,0.4 0.02,0.22 0.3,0.21 0.51,0.16 0,-0.04 0.01,-0.07 0.02,-0.11 -0.09,0.03 -0.24,0.08 -0.34,0.02 -0.07,-0.04 -0.07,-0.15 -0.05,-0.25 0.15,-0 0.3,-0 0.44,0 0.01,-0.07 0.04,-0.14 0.01,-0.21 -0.03,-0.09 -0.14,-0.11 -0.25,-0.1zm-1.19 0.01c-0,0 -0,0.01 -0,0.01 -0.03,0.22 -0.07,0.44 -0.11,0.64l0.14 0c0.03,-0.22 0.07,-0.44 0.12,-0.65l-0.14 0zm3.53 0c-0.12,-0.06 -0.22,0.04 -0.26,0.1 0.01,-0.03 0.01,-0.07 0.02,-0.1l-0.12 0c-0.03,0.22 -0.07,0.44 -0.12,0.65l0.14 0c0,-0.09 0.02,-0.15 0.03,-0.24 0.03,-0.18 0.07,-0.38 0.28,-0.32 0.01,-0.03 0.01,-0.07 0.02,-0.09zm-1.52 0.5c-0.01,-0.03 -0.02,-0.09 -0.01,-0.13 0.01,-0.09 0.04,-0.2 0.09,-0.25 0.07,-0.07 0.21,-0.06 0.32,-0.02 0,-0.04 0.01,-0.07 0.02,-0.11 -0.18,-0.03 -0.35,-0.01 -0.45,0.08 -0.09,0.09 -0.15,0.31 -0.11,0.45 0.05,0.16 0.27,0.17 0.44,0.11 0.01,-0.03 0.01,-0.07 0.02,-0.1 -0.1,0.05 -0.28,0.08 -0.32,-0.03zm-0.08 -0.5c-0.12,-0.05 -0.21,0.03 -0.26,0.11 0.01,-0.03 0.01,-0.07 0.02,-0.11l-0.12 0c-0.03,0.23 -0.07,0.44 -0.11,0.65l0.14 0c0.02,-0.13 0.03,-0.3 0.07,-0.42 0.03,-0.1 0.12,-0.18 0.25,-0.14 0,-0.04 0.01,-0.06 0.02,-0.1zm-2.18 -0.26c-0.02,0.13 -0.04,0.25 -0.06,0.37 -0.14,0 -0.28,0.01 -0.42,-0 0.03,-0.12 0.04,-0.25 0.07,-0.37l-0.15 0c-0.05,0.31 -0.1,0.62 -0.16,0.92l0.15 0c0.02,-0.15 0.05,-0.31 0.08,-0.46 0.13,-0 0.29,-0.01 0.42,0 -0.03,0.15 -0.06,0.3 -0.08,0.45l0.15 0c0.05,-0.31 0.1,-0.62 0.16,-0.92l-0.16 0zm0.38 0.14c0.03,-0.02 0.06,-0.1 0.02,-0.14 -0.01,-0.01 -0.03,-0.01 -0.06,-0.01 -0.03,0 -0.04,0.01 -0.05,0.03 -0.02,0.02 -0.03,0.09 -0.01,0.12 0.03,0.03 0.08,0.01 0.1,0z"/>
  </g>
 </g>
</svg>
