<?xml version="1.0" encoding="UTF-8"?>
<!DOCTYPE svg PUBLIC "-//W3C//DTD SVG 1.1//EN" "http://www.w3.org/Graphics/SVG/1.1/DTD/svg11.dtd">
<!-- Creator: CorelDRAW -->
<svg xmlns="http://www.w3.org/2000/svg" xml:space="preserve" width="24.6259mm" height="2.0227mm" version="1.1" style="shape-rendering:geometricPrecision; text-rendering:geometricPrecision; image-rendering:optimizeQuality; fill-rule:evenodd; clip-rule:evenodd"
viewBox="0 0 67.08 5.51"
 xmlns:xlink="http://www.w3.org/1999/xlink"
 xmlns:xodm="http://www.corel.com/coreldraw/odm/2003">
 <defs>
  <style type="text/css">
   <![CDATA[
    .fil7 {fill:black}
    .fil1 {fill:#056734}
    .fil0 {fill:#94C120}
    .fil8 {fill:#ED1C24}
    .fil9 {fill:white}
    .fil5 {fill:#4DB85C;fill-rule:nonzero}
    .fil2 {fill:#517BC2;fill-rule:nonzero}
    .fil6 {fill:#B3B3B3;fill-rule:nonzero}
    .fil3 {fill:#E8484B;fill-rule:nonzero}
    .fil4 {fill:#F2C230;fill-rule:nonzero}
   ]]>
  </style>
 </defs>
 <g id="Camada_x0020_1">
  <metadata id="CorelCorpID_0Corel-Layer"/>
  <path class="fil0" d="M2.95 4.7c-0.2,-0.62 -0.39,-1.24 -0.59,-1.86 0.03,-0.01 0.05,-0.02 0.07,-0.03 0.24,-0.11 0.44,-0.26 0.59,-0.49 0.16,-0.25 0.22,-0.53 0.2,-0.83 -0.02,-0.31 -0.15,-0.57 -0.4,-0.76 -0.25,-0.18 -0.55,-0.24 -0.85,-0.24 -0.22,0 -0.44,0 -0.67,0 -0.22,0 -0.44,0 -0.67,0l-0.07 0c-0.18,1.4 -0.37,2.8 -0.55,4.21l1.17 0c0.07,-0.52 0.14,-1.04 0.21,-1.57l0.01 0c0.1,0.52 0.2,1.04 0.31,1.57l1.25 0 -0 0zm13.83 -2.45c-0.35,0.52 -0.44,1.11 -0.34,1.73 0.04,0.24 0.16,0.45 0.36,0.61 0.2,0.15 0.43,0.2 0.67,0.2 0.65,0.02 1.17,-0.32 1.4,-0.89 0.03,-0.07 0.05,-0.14 0.07,-0.22 -0.3,0 -0.59,0 -0.87,0 -0.08,0 -0.11,0.4 -0.45,0.32 -0.11,-0.03 -0.16,-0.11 -0.16,-0.22 -0.01,-0.13 0,-0.26 0.01,-0.39 0,-0.01 0.04,-0.03 0.05,-0.03l1.5 0c0.01,-0.01 0.01,-0.03 0.01,-0.03 0.05,-0.28 0.08,-0.56 0.03,-0.84 -0.1,-0.6 -0.55,-0.81 -1.11,-0.81 -0.49,0 -0.88,0.17 -1.15,0.58l0 -0.01zm1.34 0.61l-0.61 0c0.08,-0.18 0.17,-0.5 0.42,-0.5 0.1,0 0.19,0.07 0.22,0.18l0.02 0.29c0,0.01 -0.03,0.03 -0.04,0.03zm-5.88 0.4c-0.05,0.38 -0.1,0.76 -0.15,1.15 -0.01,0.1 -0.03,0.2 -0.04,0.3 0.36,0 0.71,0 1.06,0 0.01,-0.03 0.01,-0.05 0.01,-0.07 0.01,-0.12 0.03,-0.23 0.05,-0.35 0.05,-0.42 0.11,-0.83 0.16,-1.25 0.01,-0.1 0.03,-0.21 0.12,-0.28 0.07,-0.05 0.14,-0.05 0.21,-0.03 0.07,0.03 0.08,0.09 0.08,0.16 0,0.03 0,0.07 -0.01,0.1 -0.02,0.14 -0.04,0.29 -0.06,0.44 -0.04,0.28 -0.07,0.55 -0.11,0.83 -0.02,0.14 -0.04,0.29 -0.06,0.44 0.36,0 0.7,0 1.06,0 0.01,-0.04 0.01,-0.07 0.02,-0.11 0.07,-0.53 0.14,-1.06 0.21,-1.6 0.01,-0.08 0.04,-0.17 0.1,-0.23 0.06,-0.05 0.13,-0.06 0.2,-0.03 0.07,0.03 0.09,0.09 0.08,0.16 0,0.05 -0.01,0.1 -0.01,0.15 -0.05,0.35 -0.09,0.68 -0.14,1.03 -0.03,0.21 -0.05,0.42 -0.08,0.62 0.01,0 0.01,0.01 0.02,0.01 0.34,0 0.67,0 1.01,0 0.02,0 0.05,-0.03 0.05,-0.05 0.05,-0.3 0.08,-0.6 0.12,-0.9 0.05,-0.35 0.09,-0.69 0.14,-1.04 0.02,-0.16 0.04,-0.31 0.05,-0.47 0,-0.27 -0.13,-0.46 -0.35,-0.52 -0.3,-0.08 -0.59,-0.04 -0.83,0.16 -0.1,0.08 -0.18,0.18 -0.26,0.27 0,-0.01 0,-0.01 -0.01,-0.03 -0.08,-0.3 -0.26,-0.44 -0.57,-0.44 -0.35,-0.01 -0.63,0.15 -0.85,0.42 -0.01,0.01 -0.03,0.03 -0.04,0.05 -0.01,0 -0.01,-0.01 -0.01,-0.01 0.01,-0.13 0.03,-0.26 0.05,-0.4 -0.34,0 -0.67,0 -0.99,0 -0.01,0 -0.04,0.03 -0.05,0.05 -0.01,0.08 -0.02,0.16 -0.03,0.24 -0.05,0.4 -0.11,0.81 -0.16,1.21l0.01 0.01zm-2.87 -0.67c-0.11,0.34 -0.16,0.69 -0.18,1.05 -0.01,0.23 0.01,0.45 0.1,0.67 0.1,0.26 0.27,0.44 0.56,0.48 0.24,0.03 0.46,-0.05 0.65,-0.2 0.07,-0.06 0.13,-0.12 0.2,-0.18 -0.01,0.1 -0.03,0.2 -0.04,0.3l1.07 0c0.13,-0.98 0.26,-1.96 0.39,-2.95l-1.07 0c-0.01,0.1 -0.03,0.2 -0.05,0.31 -0.03,-0.04 -0.05,-0.07 -0.07,-0.09 -0.08,-0.1 -0.16,-0.18 -0.28,-0.24 -0.1,-0.05 -0.2,-0.07 -0.31,-0.07 -0.21,0.01 -0.42,0.09 -0.58,0.24 -0.2,0.19 -0.31,0.42 -0.4,0.67l-0.01 0.01zm0.93 0.89c0,-0.22 0.03,-0.42 0.1,-0.62 0.03,-0.07 0.06,-0.14 0.1,-0.19 0.05,-0.05 0.1,-0.08 0.14,-0.08 0.03,0 0.05,0.01 0.07,0.01 0.05,0.02 0.08,0.07 0.1,0.13 0.02,0.07 0.03,0.14 0.03,0.19 0,0.01 0,0.03 0.01,0.03 -0.01,0.2 -0.03,0.36 -0.07,0.52 -0.01,0.05 -0.03,0.1 -0.05,0.14 -0.03,0.07 -0.06,0.13 -0.11,0.18 -0.08,0.1 -0.2,0.09 -0.27,0.01 -0.02,-0.02 -0.03,-0.05 -0.05,-0.08 -0.02,-0.07 -0.03,-0.16 -0.03,-0.23l0 -0.01zm-2.04 -3.36c-0.2,1.53 -0.4,3.05 -0.61,4.58 0.02,0 0.04,0.01 0.06,0.01 0.32,0 0.64,0 0.96,0 0.03,0 0.06,0.01 0.07,-0.04 0.03,-0.26 0.07,-0.52 0.1,-0.78 0.05,-0.4 0.1,-0.81 0.16,-1.21 0.05,-0.38 0.1,-0.75 0.15,-1.13 0.05,-0.38 0.1,-0.76 0.15,-1.15 0.01,-0.09 0.02,-0.18 0.03,-0.27 -0.36,0 -0.72,0 -1.07,0l0 -0.01zm-2.44 3.83c0.04,0.25 0.16,0.49 0.37,0.64 0.37,0.26 0.78,0.25 1.18,0.08 0.02,-0.01 0.03,-0.04 0.04,-0.06 0.02,-0.15 0.05,-0.31 0.06,-0.46 0.02,-0.14 0.03,-0.27 0.05,-0.42 -0.07,0.02 -0.12,0.04 -0.18,0.05 -0.17,0.04 -0.31,-0.05 -0.35,-0.22 -0.05,-0.27 -0.01,-0.53 0.14,-0.77 0.08,-0.13 0.21,-0.19 0.37,-0.16 0.05,0.01 0.1,0.03 0.16,0.05 0.04,-0.3 0.08,-0.59 0.12,-0.89 -0.24,-0.12 -0.5,-0.14 -0.76,-0.1 -0.38,0.06 -0.67,0.27 -0.87,0.58 -0.34,0.52 -0.43,1.08 -0.33,1.68l0 0.01zm-2.73 0.03c0.07,0.38 0.3,0.65 0.68,0.76 0.22,0.06 0.44,0.07 0.66,0.03 0.6,-0.1 0.97,-0.47 1.14,-1.04 0.01,-0.01 0.01,-0.03 0.01,-0.05 -0.29,0 -0.58,0 -0.86,0 -0.06,0 -0.07,0.17 -0.21,0.27 -0.16,0.11 -0.36,0.05 -0.4,-0.12 -0.04,-0.15 -0.02,-0.31 0.01,-0.47l1.57 0c0.11,-0.63 0.14,-1.44 -0.63,-1.63 -0.16,-0.04 -0.34,-0.06 -0.51,-0.06 -0.44,0 -0.8,0.17 -1.06,0.53 -0.39,0.53 -0.48,1.14 -0.38,1.77l-0.01 0.01zm1.71 -1.15c-0.01,0.01 -0.03,0.03 -0.03,0.03 -0.2,0 -0.39,0 -0.59,0 0.05,-0.18 0.15,-0.49 0.37,-0.5 0.34,-0.01 0.25,0.46 0.25,0.46l-0.01 0zm-2.88 -0.66c-0.01,0.01 -0.02,0.03 -0.03,0.04 -0.01,0.01 -0.01,0.01 -0.01,0.02 -0.09,0.11 -0.25,0.17 -0.39,0.15 0.04,-0.33 0.08,-0.65 0.13,-0.98 0.01,0 0.02,0 0.03,-0.01 0.02,0 0.04,-0.01 0.06,-0.01 0.18,0 0.31,0.13 0.31,0.33 0.01,0.16 -0.01,0.31 -0.09,0.45l-0.01 0.01z"/>
  <path class="fil1" d="M20.53 0.57c-0.45,1.28 -0.9,2.58 -1.36,3.86 -0.03,0.09 -0.06,0.18 -0.09,0.27 0.36,0 0.71,0 1.06,0 0.07,0 0.1,-0.02 0.12,-0.08 0.05,-0.18 0.1,-0.35 0.14,-0.53l0.7 0 0 0.61 1.15 0c-0.12,-1.4 -0.24,-2.8 -0.37,-4.2 -0.03,0 -0.06,0 -0.08,0 -0.39,0 -0.78,0 -1.17,0 -0.06,0 -0.08,0.01 -0.1,0.07l-0.01 0.01zm8.88 -0.07c-0.18,1.4 -0.37,2.8 -0.55,4.21 0.38,0 0.76,0 1.14,0 0.01,0 0.04,-0.03 0.04,-0.04 0.05,-0.33 0.08,-0.66 0.13,-0.99 0.05,-0.34 0.09,-0.68 0.14,-1.02 0.04,-0.31 0.08,-0.62 0.12,-0.93 0.05,-0.31 0.08,-0.63 0.12,-0.94 0.01,-0.09 0.02,-0.18 0.03,-0.28 -0.4,0 -0.78,0 -1.17,0l-0 -0.01zm-3.63 2.52c-0.04,0.29 -0.07,0.58 -0.03,0.87 0.06,0.4 0.25,0.7 0.7,0.82 0.27,0.07 0.54,0.08 0.82,0.05 0.6,-0.05 1.02,-0.35 1.24,-0.93 0.1,-0.25 0.14,-0.52 0.17,-0.79 0.05,-0.37 0.1,-0.74 0.15,-1.12 0.05,-0.38 0.1,-0.77 0.15,-1.15 0.01,-0.09 0.03,-0.19 0.03,-0.29 -0.4,0 -0.79,0 -1.17,0 -0.01,0.01 -0.01,0.03 -0.01,0.04 -0.03,0.21 -0.05,0.41 -0.08,0.62 -0.05,0.34 -0.08,0.68 -0.13,1.01 -0.04,0.31 -0.08,0.63 -0.12,0.94 -0.02,0.12 -0.04,0.24 -0.07,0.36 -0.03,0.1 -0.09,0.17 -0.19,0.19 -0.18,0.04 -0.32,-0.02 -0.31,-0.23 0,-0.05 0.01,-0.1 0.01,-0.15 0.04,-0.28 0.07,-0.55 0.11,-0.83 0.05,-0.34 0.09,-0.68 0.14,-1.02 0.04,-0.31 0.08,-0.61 0.12,-0.91 -0.39,0 -0.78,0 -1.18,0 -0.02,0.16 -0.04,0.31 -0.07,0.47 -0.05,0.34 -0.09,0.68 -0.14,1.02 -0.05,0.35 -0.09,0.69 -0.14,1.04l0 0.01zm-3.33 -0.29c-0.06,0.55 -0.03,1.23 0.36,1.67 0.25,0.28 0.58,0.38 0.95,0.37 0.11,0 0.16,0.03 0.22,0.12 0.09,0.16 0.2,0.32 0.29,0.48 0.33,-0.15 0.67,-0.3 1,-0.45 -0.15,-0.18 -0.29,-0.35 -0.44,-0.53 0.61,-0.59 0.8,-1.42 0.83,-2.24 0.04,-0.91 -0.29,-1.75 -1.32,-1.75 -0.45,0 -0.82,0.15 -1.14,0.47 -0.48,0.48 -0.67,1.19 -0.74,1.85l-0.01 0.01zm1.28 0.91l-0.08 -0.15c-0.04,-0.15 -0.03,-0.29 -0.03,-0.44 0.02,-0.4 0.07,-0.8 0.18,-1.18 0.03,-0.11 0.08,-0.22 0.14,-0.31 0.05,-0.08 0.15,-0.12 0.25,-0.12 0.12,0 0.22,0.05 0.24,0.17 0.03,0.11 0.04,0.23 0.05,0.3 -0.03,0.52 -0.08,0.97 -0.21,1.41 -0.03,0.12 -0.08,0.22 -0.16,0.3 -0.12,0.12 -0.29,0.12 -0.39,0.03l0.01 0zm-3.1 -0.42c0.14,-0.5 0.28,-1 0.42,-1.5 0.01,0 0.01,0 0.01,0 0.01,0.5 0.02,1 0.03,1.5l-0.46 0 -0 0z"/>
  <path class="fil2" d="M38.74 1.94l-1.96 0 0 0.58 1.4 0c-0.07,0.82 -0.75,1.17 -1.39,1.17 -0.82,0 -1.54,-0.65 -1.54,-1.55 0,-0.88 0.68,-1.56 1.54,-1.56 0.66,0 1.05,0.42 1.05,0.42l0.41 -0.42c0,0 -0.52,-0.58 -1.48,-0.58 -1.21,0 -2.16,1.02 -2.16,2.13 0,1.09 0.89,2.15 2.19,2.15 1.15,0 1.98,-0.78 1.98,-1.94 0,-0.25 -0.03,-0.38 -0.03,-0.38l0 0 -0.01 -0.01z"/>
  <path class="fil3" d="M40.35 2.06c0.4,0 0.77,0.32 0.77,0.83 0,0.5 -0.37,0.83 -0.78,0.83 -0.44,0 -0.78,-0.35 -0.78,-0.84 0,-0.48 0.34,-0.83 0.79,-0.83l0 0 -0 0.01zm-0.01 -0.54c-0.81,0 -1.38,0.63 -1.38,1.36 0,0.74 0.56,1.39 1.4,1.39 0.76,0 1.37,-0.57 1.37,-1.37 0,-0.91 -0.72,-1.38 -1.38,-1.38l0 0 0 0z"/>
  <path class="fil4" d="M43.36 2.06c0.4,0 0.77,0.32 0.77,0.83 0,0.5 -0.37,0.83 -0.78,0.83 -0.44,0 -0.78,-0.35 -0.78,-0.84 0,-0.48 0.34,-0.83 0.79,-0.83l0 0 -0 0.01zm-0.01 -0.54c-0.81,0 -1.38,0.63 -1.38,1.36 0,0.74 0.56,1.39 1.4,1.39 0.76,0 1.37,-0.57 1.37,-1.37 0,-0.91 -0.72,-1.38 -1.38,-1.38l0 0 0 0z"/>
  <path class="fil2" d="M46.35 2.06c0.37,0 0.74,0.31 0.74,0.84 0,0.53 -0.37,0.83 -0.74,0.83 -0.39,0 -0.76,-0.32 -0.76,-0.83 0,-0.53 0.38,-0.84 0.77,-0.84l0 0 0 -0.01zm-0.05 -0.54c-0.74,0 -1.32,0.65 -1.32,1.38 0,0.83 0.67,1.38 1.31,1.38 0.39,0 0.6,-0.16 0.76,-0.33l0 0.27c0,0.48 -0.29,0.76 -0.72,0.76 -0.42,0 -0.63,-0.31 -0.7,-0.49l-0.53 0.22c0.19,0.4 0.57,0.81 1.24,0.81 0.74,0 1.3,-0.46 1.3,-1.43l0 -2.47 -0.57 0 0 0.23c-0.18,-0.19 -0.42,-0.31 -0.74,-0.31l0 0 -0.01 -0.01z"/>
  <path class="fil3" d="M50.21 2.05c0.25,0 0.43,0.13 0.51,0.29l-1.23 0.52c-0.05,-0.4 0.33,-0.81 0.72,-0.81l0 0zm-0.03 -0.53c-0.7,0 -1.28,0.55 -1.28,1.38 0,0.87 0.65,1.38 1.35,1.38 0.58,0 0.94,-0.32 1.15,-0.61l-0.48 -0.32c-0.12,0.19 -0.33,0.38 -0.67,0.38 -0.38,0 -0.57,-0.21 -0.67,-0.42l1.85 -0.76 -0.1 -0.22c-0.18,-0.44 -0.59,-0.81 -1.14,-0.81l0 0 -0.01 0z"/>
  <polygon class="fil5" points="48.02,4.19 48.63,4.19 48.63,0.14 48.02,0.14 "/>
  <path class="fil6" d="M39.25 0.48l-0.2 0 0 -0.05 0.44 0 0 0.05 -0.2 0 0 0.5 -0.06 0 0 -0.5 0.01 0zm0.38 0.17c0.01,-0.03 0.03,-0.05 0.06,-0.07 0.03,-0.01 0.06,-0.02 0.1,-0.02l0 0.05 -0.01 0c-0.05,0 -0.08,0.01 -0.1,0.04 -0.03,0.03 -0.04,0.07 -0.04,0.11l0 0.21 -0.06 0 0 -0.42 0.05 0 0 0.08 0.01 0.01zm0.4 -0.08c0.05,0 0.1,0.01 0.12,0.04 0.03,0.03 0.05,0.07 0.05,0.12l0 0.25 -0.05 0 0 -0.07c-0.01,0.02 -0.03,0.04 -0.06,0.05 -0.03,0.01 -0.05,0.02 -0.08,0.02 -0.05,0 -0.08,-0.01 -0.11,-0.03 -0.03,-0.02 -0.04,-0.05 -0.04,-0.08 0,-0.03 0.01,-0.07 0.04,-0.08 0.03,-0.02 0.07,-0.03 0.12,-0.03l0.13 0 0 -0.03c0,-0.03 -0.01,-0.07 -0.03,-0.08 -0.02,-0.02 -0.05,-0.03 -0.08,-0.03 -0.03,0 -0.05,0.01 -0.08,0.01 -0.03,0.01 -0.05,0.02 -0.07,0.04l-0.03 -0.04c0.02,-0.02 0.05,-0.03 0.08,-0.04 0.03,-0.01 0.06,-0.01 0.09,-0.01l-0 -0.01zm-0.02 0.38c0.03,0 0.06,-0.01 0.08,-0.02 0.02,-0.01 0.04,-0.03 0.05,-0.07l0 -0.07 -0.13 0c-0.07,0 -0.1,0.03 -0.1,0.07 0,0.03 0.01,0.05 0.03,0.06 0.02,0.01 0.05,0.02 0.08,0.02l0 0zm0.55 -0.38c0.05,0 0.09,0.01 0.12,0.05 0.03,0.03 0.05,0.07 0.05,0.13l0 0.24 -0.06 0 0 -0.23c0,-0.05 -0.01,-0.08 -0.03,-0.1 -0.02,-0.02 -0.05,-0.03 -0.09,-0.03 -0.05,0 -0.08,0.01 -0.1,0.04 -0.03,0.03 -0.04,0.07 -0.04,0.11l0 0.22 -0.06 0 0 -0.42 0.05 0 0 0.08c0.01,-0.03 0.04,-0.05 0.07,-0.06 0.03,-0.01 0.06,-0.02 0.09,-0.02l0.01 -0zm0.43 0.42c-0.03,0 -0.07,-0.01 -0.1,-0.01 -0.03,-0.01 -0.05,-0.02 -0.07,-0.04l0.03 -0.05c0.02,0.01 0.04,0.03 0.07,0.03 0.03,0.01 0.05,0.01 0.08,0.01 0.04,0 0.07,-0.01 0.08,-0.02 0.02,-0.01 0.03,-0.03 0.03,-0.05 0,-0.01 -0.01,-0.03 -0.01,-0.03 -0.01,-0.01 -0.02,-0.01 -0.04,-0.02 -0.01,-0.01 -0.03,-0.01 -0.06,-0.01 -0.03,-0.01 -0.06,-0.01 -0.08,-0.02 -0.02,-0.01 -0.04,-0.02 -0.05,-0.03 -0.01,-0.01 -0.02,-0.04 -0.02,-0.07 0,-0.03 0.01,-0.07 0.05,-0.08 0.03,-0.02 0.07,-0.03 0.12,-0.03 0.03,0 0.05,0.01 0.08,0.01 0.03,0.01 0.05,0.01 0.07,0.03l-0.03 0.05c-0.03,-0.03 -0.07,-0.03 -0.12,-0.03 -0.03,0 -0.07,0.01 -0.08,0.02 -0.02,0.01 -0.03,0.03 -0.03,0.05 0,0.01 0.01,0.03 0.01,0.04 0.01,0.01 0.03,0.02 0.04,0.02 0.01,0.01 0.04,0.01 0.07,0.01 0.03,0.01 0.06,0.01 0.08,0.02 0.02,0.01 0.04,0.02 0.05,0.03 0.01,0.01 0.02,0.04 0.02,0.07 0,0.04 -0.01,0.07 -0.05,0.08 -0.03,0.02 -0.07,0.03 -0.12,0.03l-0.01 -0.01zm0.49 -0.42c0.04,0 0.07,0.01 0.1,0.03 0.03,0.02 0.06,0.05 0.07,0.07 0.02,0.03 0.03,0.07 0.03,0.11 0,0.04 -0.01,0.08 -0.03,0.11 -0.02,0.03 -0.05,0.06 -0.07,0.07 -0.03,0.02 -0.07,0.03 -0.1,0.03 -0.03,0 -0.07,-0.01 -0.09,-0.02 -0.03,-0.01 -0.05,-0.03 -0.07,-0.06l0 0.23 -0.06 0 0 -0.57 0.05 0 0 0.08c0.02,-0.03 0.04,-0.05 0.07,-0.07 0.03,-0.01 0.06,-0.02 0.09,-0.02l0.01 -0zm-0.01 0.37c0.03,0 0.05,-0.01 0.08,-0.02 0.03,-0.01 0.04,-0.03 0.06,-0.06 0.01,-0.03 0.02,-0.05 0.02,-0.08 0,-0.03 -0.01,-0.06 -0.02,-0.08 -0.01,-0.03 -0.03,-0.05 -0.06,-0.06 -0.03,-0.01 -0.05,-0.02 -0.08,-0.02 -0.03,0 -0.06,0.01 -0.08,0.02 -0.03,0.01 -0.04,0.03 -0.05,0.06 -0.01,0.03 -0.02,0.05 -0.02,0.08 0,0.03 0.01,0.06 0.02,0.08 0.01,0.03 0.03,0.05 0.05,0.06 0.03,0.01 0.05,0.02 0.08,0.02zm0.47 -0.37c0.05,0 0.1,0.01 0.12,0.04 0.03,0.03 0.05,0.07 0.05,0.12l0 0.25 -0.05 0 0 -0.07c-0.01,0.02 -0.03,0.04 -0.06,0.05 -0.03,0.01 -0.05,0.02 -0.08,0.02 -0.05,0 -0.08,-0.01 -0.11,-0.03 -0.03,-0.02 -0.04,-0.05 -0.04,-0.08 0,-0.03 0.01,-0.07 0.04,-0.08 0.03,-0.02 0.07,-0.03 0.12,-0.03l0.13 0 0 -0.03c0,-0.03 -0.01,-0.07 -0.03,-0.08 -0.02,-0.02 -0.05,-0.03 -0.08,-0.03 -0.03,0 -0.05,0.01 -0.08,0.01 -0.03,0.01 -0.05,0.02 -0.07,0.04l-0.03 -0.04c0.02,-0.02 0.05,-0.03 0.08,-0.04 0.03,-0.01 0.06,-0.01 0.09,-0.01l-0 -0.01zm-0.02 0.38c0.03,0 0.06,-0.01 0.08,-0.02 0.02,-0.01 0.04,-0.03 0.05,-0.07l0 -0.07 -0.13 0c-0.07,0 -0.1,0.03 -0.1,0.07 0,0.03 0.01,0.05 0.03,0.06 0.02,0.01 0.05,0.02 0.08,0.02l0 0zm0.39 -0.29c0.01,-0.03 0.03,-0.05 0.06,-0.07 0.03,-0.01 0.06,-0.02 0.1,-0.02l0 0.05 -0.01 0c-0.05,0 -0.08,0.01 -0.1,0.04 -0.03,0.03 -0.04,0.07 -0.04,0.11l0 0.21 -0.06 0 0 -0.42 0.05 0 0 0.08 0.01 0.01zm0.61 0.14l-0.35 0c0,0.05 0.02,0.08 0.05,0.1 0.03,0.03 0.07,0.04 0.11,0.04 0.03,0 0.05,-0.01 0.07,-0.01 0.02,-0.01 0.04,-0.03 0.06,-0.04l0.03 0.04c-0.02,0.02 -0.04,0.04 -0.07,0.05 -0.03,0.01 -0.06,0.02 -0.09,0.02 -0.05,0 -0.08,-0.01 -0.11,-0.03 -0.03,-0.02 -0.06,-0.05 -0.08,-0.08 -0.02,-0.03 -0.03,-0.07 -0.03,-0.11 0,-0.04 0.01,-0.08 0.03,-0.11 0.02,-0.03 0.04,-0.06 0.07,-0.08 0.03,-0.02 0.07,-0.03 0.1,-0.03 0.04,0 0.07,0.01 0.1,0.03 0.03,0.02 0.05,0.05 0.07,0.07 0.02,0.03 0.03,0.07 0.03,0.11l0 0.02 -0.01 0zm-0.2 -0.18c-0.04,0 -0.07,0.01 -0.1,0.04 -0.03,0.03 -0.05,0.06 -0.05,0.1l0.29 0c-0.01,-0.04 -0.02,-0.07 -0.05,-0.1 -0.03,-0.03 -0.06,-0.04 -0.1,-0.04l0 0zm0.53 -0.05c0.05,0 0.09,0.01 0.12,0.05 0.03,0.03 0.05,0.07 0.05,0.13l0 0.24 -0.06 0 0 -0.23c0,-0.05 -0.01,-0.08 -0.03,-0.1 -0.02,-0.02 -0.05,-0.03 -0.09,-0.03 -0.05,0 -0.08,0.01 -0.1,0.04 -0.03,0.03 -0.04,0.07 -0.04,0.11l0 0.22 -0.06 0 0 -0.42 0.05 0 0 0.08c0.01,-0.03 0.04,-0.05 0.07,-0.06 0.03,-0.01 0.06,-0.02 0.09,-0.02l0.01 -0zm0.5 0.42c-0.04,0 -0.08,-0.01 -0.11,-0.03 -0.03,-0.02 -0.06,-0.05 -0.08,-0.08 -0.02,-0.03 -0.03,-0.07 -0.03,-0.11 0,-0.04 0.01,-0.08 0.03,-0.11 0.02,-0.03 0.05,-0.06 0.08,-0.08 0.03,-0.02 0.07,-0.03 0.11,-0.03 0.03,0 0.07,0.01 0.1,0.02 0.03,0.01 0.05,0.03 0.07,0.06l-0.04 0.03c-0.01,-0.02 -0.03,-0.03 -0.05,-0.05 -0.02,-0.01 -0.05,-0.01 -0.07,-0.01 -0.03,0 -0.06,0.01 -0.08,0.02 -0.03,0.01 -0.05,0.03 -0.06,0.06 -0.01,0.03 -0.02,0.05 -0.02,0.08 0,0.03 0.01,0.06 0.02,0.08 0.01,0.03 0.03,0.05 0.06,0.06 0.03,0.01 0.05,0.02 0.08,0.02 0.03,0 0.05,-0.01 0.07,-0.01 0.02,-0.01 0.04,-0.03 0.05,-0.05l0.04 0.03c-0.01,0.03 -0.04,0.05 -0.07,0.06 -0.03,0.01 -0.06,0.02 -0.1,0.02l0 0.01zm0.61 -0.42l-0.21 0.46c-0.02,0.04 -0.04,0.07 -0.06,0.08 -0.02,0.02 -0.05,0.03 -0.08,0.03 -0.02,0 -0.04,0 -0.06,-0.01 -0.02,-0.01 -0.03,-0.01 -0.05,-0.03l0.03 -0.04c0.02,0.02 0.05,0.03 0.08,0.03 0.02,0 0.03,-0.01 0.05,-0.01 0.01,-0.01 0.03,-0.03 0.04,-0.05l0.02 -0.04 -0.18 -0.41 0.06 0 0.16 0.35 0.16 -0.35 0.05 0 0 -0.02zm0.67 0.42l-0.12 -0.18c-0.01,0 -0.03,0 -0.05,0l-0.15 0 0 0.18 -0.06 0 0 -0.55 0.21 0c0.07,0 0.12,0.02 0.16,0.05 0.04,0.03 0.06,0.08 0.06,0.14 0,0.05 -0.01,0.08 -0.03,0.11 -0.02,0.03 -0.05,0.05 -0.09,0.07l0.14 0.19 -0.07 0 0 0zm-0.17 -0.22c0.05,0 0.1,-0.01 0.12,-0.04 0.03,-0.03 0.05,-0.06 0.05,-0.1 0,-0.05 -0.01,-0.08 -0.05,-0.1 -0.03,-0.03 -0.07,-0.04 -0.12,-0.04l-0.15 0 0 0.27 0.15 0 0 0.01zm0.72 0.03l-0.35 0c0,0.05 0.02,0.08 0.05,0.1 0.03,0.03 0.07,0.04 0.11,0.04 0.03,0 0.05,-0.01 0.07,-0.01 0.02,-0.01 0.04,-0.03 0.06,-0.04l0.03 0.04c-0.02,0.02 -0.04,0.04 -0.07,0.05 -0.03,0.01 -0.06,0.02 -0.09,0.02 -0.05,0 -0.08,-0.01 -0.11,-0.03 -0.03,-0.02 -0.06,-0.05 -0.08,-0.08 -0.02,-0.03 -0.03,-0.07 -0.03,-0.11 0,-0.04 0.01,-0.08 0.03,-0.11 0.02,-0.03 0.04,-0.06 0.07,-0.08 0.03,-0.02 0.07,-0.03 0.1,-0.03 0.04,0 0.07,0.01 0.1,0.03 0.03,0.02 0.05,0.05 0.07,0.07 0.02,0.03 0.03,0.07 0.03,0.11l0 0.02 -0.01 0zm-0.2 -0.18c-0.04,0 -0.07,0.01 -0.1,0.04 -0.03,0.03 -0.05,0.06 -0.05,0.1l0.29 0c-0.01,-0.04 -0.02,-0.07 -0.05,-0.1 -0.03,-0.03 -0.06,-0.04 -0.1,-0.04l0 0zm0.53 -0.05c0.04,0 0.07,0.01 0.1,0.03 0.03,0.02 0.06,0.05 0.07,0.07 0.02,0.03 0.03,0.07 0.03,0.11 0,0.04 -0.01,0.08 -0.03,0.11 -0.02,0.03 -0.04,0.06 -0.07,0.07 -0.03,0.02 -0.07,0.03 -0.1,0.03 -0.03,0 -0.07,-0.01 -0.09,-0.02 -0.03,-0.01 -0.05,-0.03 -0.07,-0.06l0 0.23 -0.06 0 0 -0.57 0.05 0 0 0.08c0.02,-0.03 0.04,-0.05 0.07,-0.07 0.03,-0.01 0.06,-0.02 0.09,-0.02l0.01 -0zm-0.01 0.37c0.03,0 0.05,-0.01 0.08,-0.02 0.03,-0.01 0.04,-0.03 0.06,-0.06 0.01,-0.03 0.02,-0.05 0.02,-0.08 0,-0.03 -0.01,-0.06 -0.02,-0.08 -0.01,-0.03 -0.03,-0.05 -0.06,-0.06 -0.03,-0.01 -0.05,-0.02 -0.08,-0.02 -0.03,0 -0.06,0.01 -0.08,0.02 -0.03,0.01 -0.04,0.03 -0.05,0.06 -0.01,0.03 -0.02,0.05 -0.02,0.08 0,0.03 0.01,0.06 0.02,0.08 0.01,0.03 0.03,0.05 0.05,0.06 0.03,0.01 0.05,0.02 0.08,0.02zm0.5 0.05c-0.04,0 -0.08,-0.01 -0.11,-0.03 -0.03,-0.02 -0.06,-0.05 -0.08,-0.08 -0.02,-0.03 -0.03,-0.07 -0.03,-0.11 0,-0.04 0.01,-0.08 0.03,-0.11 0.02,-0.03 0.05,-0.06 0.08,-0.08 0.03,-0.02 0.07,-0.03 0.11,-0.03 0.04,0 0.08,0.01 0.11,0.03 0.03,0.02 0.06,0.05 0.08,0.08 0.02,0.03 0.03,0.07 0.03,0.11 0,0.04 -0.01,0.08 -0.03,0.11 -0.02,0.03 -0.05,0.06 -0.08,0.08 -0.03,0.02 -0.07,0.03 -0.11,0.03zm0 -0.05c0.03,0 0.06,-0.01 0.08,-0.02 0.03,-0.01 0.04,-0.03 0.05,-0.06 0.01,-0.03 0.02,-0.05 0.02,-0.08 0,-0.03 -0.01,-0.06 -0.02,-0.08 -0.01,-0.03 -0.03,-0.05 -0.05,-0.06 -0.03,-0.01 -0.05,-0.02 -0.08,-0.02 -0.03,0 -0.06,0.01 -0.08,0.02 -0.03,0.01 -0.04,0.03 -0.05,0.06 -0.01,0.03 -0.02,0.05 -0.02,0.08 0,0.03 0.01,0.06 0.02,0.08 0.01,0.03 0.03,0.05 0.05,0.06 0.03,0.01 0.05,0.02 0.08,0.02zm0.38 -0.29c0.01,-0.03 0.03,-0.05 0.06,-0.07 0.03,-0.01 0.06,-0.02 0.1,-0.02l0 0.05 -0.01 0c-0.05,0 -0.08,0.01 -0.1,0.04 -0.03,0.03 -0.04,0.07 -0.04,0.11l0 0.21 -0.06 0 0 -0.42 0.05 0 0 0.08 0.01 0.01zm0.5 0.31c-0.01,0.01 -0.03,0.02 -0.04,0.02 -0.01,0.01 -0.03,0.01 -0.05,0.01 -0.04,0 -0.07,-0.01 -0.09,-0.03 -0.02,-0.02 -0.03,-0.05 -0.03,-0.09l0 -0.25 -0.07 0 0 -0.05 0.07 0 0 -0.09 0.06 0 0 0.09 0.12 0 0 0.05 -0.12 0 0 0.25c0,0.03 0.01,0.05 0.02,0.06 0.01,0.01 0.03,0.02 0.05,0.02 0.01,0 0.02,0 0.03,-0.01 0.01,-0.01 0.02,-0.01 0.03,-0.01l0.02 0.04 0 0z"/>
  <path class="fil7" d="M60.2 0.07l0 4.13c0.15,0.05 0.33,0.1 0.56,0.14 0.23,0.05 0.47,0.07 0.72,0.07 0.28,0 0.52,-0.04 0.74,-0.12 0.22,-0.08 0.4,-0.2 0.55,-0.34 0.15,-0.14 0.26,-0.32 0.34,-0.52 0.08,-0.2 0.12,-0.42 0.12,-0.67 0,-0.2 -0.03,-0.4 -0.09,-0.57 -0.06,-0.18 -0.14,-0.34 -0.26,-0.48 -0.11,-0.14 -0.25,-0.25 -0.42,-0.33 -0.16,-0.08 -0.35,-0.12 -0.57,-0.12 -0.14,0 -0.29,0.03 -0.44,0.08 -0.15,0.05 -0.26,0.12 -0.35,0.21l0 -1.48 -0.91 0 0.01 0zm5.16 1.81l0 1.58c0,0.58 0.37,0.94 1.08,0.94 0.21,0 0.42,-0.04 0.63,-0.1l-0.14 -0.66c-0.15,0.04 -0.3,0.07 -0.45,0.07 -0.2,0 -0.31,-0.12 -0.31,-0.35l0 -1.49 0.68 0 0 -0.58 -0.68 0 0 -0.93 -0.82 0 0 0.93 -0.48 0 0 0.51 0.48 0.07 0 0.01zm-1.72 -0.58l0 3.11 0.67 0c0.09,0 0.15,-0.06 0.15,-0.15l0 -2.96 -0.82 0 -0 0zm-1.66 0.82c0.07,0.05 0.14,0.1 0.18,0.17 0.05,0.07 0.08,0.15 0.1,0.24 0.02,0.09 0.03,0.18 0.03,0.27 0,0.25 -0.07,0.46 -0.2,0.62 -0.14,0.16 -0.32,0.23 -0.56,0.23 -0.11,0 -0.2,-0.01 -0.26,-0.01 -0.06,-0.01 -0.12,-0.03 -0.17,-0.05l0 -0.92c0,-0.19 0.05,-0.33 0.15,-0.45 0.1,-0.11 0.25,-0.17 0.45,-0.17 0.1,0 0.2,0.02 0.27,0.07l-0 -0.01z"/>
  <path class="fil8" d="M64.06 0.86c0.23,0 0.41,-0.17 0.41,-0.39 0,-0.22 -0.18,-0.39 -0.41,-0.39 -0.23,0 -0.41,0.17 -0.41,0.39 0,0.22 0.18,0.39 0.41,0.39z"/>
  <path class="fil8" d="M59.77 2.24c0,-1.19 -0.97,-2.16 -2.16,-2.16 -1.19,0 -2.16,0.97 -2.16,2.16 0,1.19 0.97,2.16 2.16,2.16 1.19,0 2.16,-0.97 2.16,-2.16z"/>
  <path class="fil9" d="M58.14 1.95l-1.06 0c0.02,-0.25 0.22,-0.5 0.57,-0.5 0.29,0 0.5,0.22 0.5,0.5l0 0zm0.8 0.29c0,-0.81 -0.48,-1.39 -1.29,-1.39 -0.83,0 -1.37,0.61 -1.37,1.39 0,0.83 0.65,1.37 1.45,1.37 0.42,0 0.84,-0.19 1.1,-0.52l-0.56 -0.41c-0.14,0.18 -0.31,0.32 -0.57,0.32 -0.31,0 -0.54,-0.2 -0.61,-0.5l1.86 0 0 -0.25 0 -0.01z"/>
 </g>
</svg>
